<svg xmlns="http://www.w3.org/2000/svg" viewBox="0 0 250 250" enable-background="new 0 0 250 250"><g fill="#A7A9AC"><path d="M154 46h-92.4c-1.1 0-1.6.9-1.6 2v156c0 1.1.5 2 1.6 2h126.80000000000001c1.1 0 1.6-.9 1.6-2v-69h6v69c0 4.4-3.2 8-7.6 8h-126.8c-4.4 0-7.6-3.6-7.6-8v-156c0-4.4 3.2-8 7.6-8h92.4v6zM157.1 78h-6.1v22h6.1c6.8 0 10.8-5.1 10.8-11-.1-6-3.8-11-10.8-11zM102 63v52h111v-52h-111zm28.6 30h-8.6v12h-5v-31h13.6c6.6 0 10.2 4.2 10.2 9.5s-3.7 9.5-10.2 9.5zm26.5 12h-12.1v-31h12.1c9.8 0 16.4 6.3 16.4 15.5s-6.6 15.5-16.4 15.5zm42.9-27h-16v9h16v4h-16v14h-5v-31h21v4zM129.9 78h-7.9v10h7.9c3.1 0 5.4-2 5.4-5s-2.3-5-5.4-5z"/></g></svg>