<svg xmlns="http://www.w3.org/2000/svg" viewBox="0 0 557.5 118.1" enable-background="new 0 0 557.5 118.1"><g fill="#231F20"><path d="M111.8 51.7v-17.6h2.2v13.8l10.1-13.8h2.2v17.6h-2.2v-14l-10.3 14h-2zM143 51.7v-8.1h-10.3v8.1h-2.2v-17.6h2.2v7.6h10.3v-7.6h2.2v17.6h-2.2zM149.3 51.7v-17.6h7.8c3.1 0 4.9 1.8 4.9 4.5 0 2.2-1.5 3.7-3.1 4 1.9.3 3.4 2.2 3.4 4.3 0 2.8-1.9 4.8-5.1 4.8h-7.9zm10.5-12.8c0-1.6-1.1-2.9-3-2.9h-5.3v5.7h5.3c1.9.1 3-1.2 3-2.8zm.3 7.8c0-1.6-1.1-3-3.3-3h-5.4v6.1h5.4c2.1 0 3.3-1.2 3.3-3.1zM165.9 51.7v-17.6h11.5v2h-9.3v5.7h9.2v2h-9.2v6.1h9.3v2h-11.5zM180.2 42.9c0-5.4 4-9.1 9.1-9.1 3.1 0 5.3 1.5 6.7 3.5l-1.8 1c-1-1.5-2.8-2.6-4.8-2.6-3.9 0-6.8 3-6.8 7.2s2.9 7.2 6.8 7.2c2 0 3.8-1.1 4.8-2.6l1.9 1c-1.5 2-3.6 3.5-6.7 3.5-5.2 0-9.2-3.6-9.2-9.1zM203.1 51.7v-15.6h-5.6v-2h13.4v2h-5.6v15.7h-2.2zM213.8 51.7v-17.6h2.2v13.8l10.1-13.8h2.2v17.6h-2.2v-14l-10.3 14h-2zM246.6 51.7h-14.1v-17.6h2.2v15.7h10.3v-15.7h2.2v15.7h1.6v5.2h-2.2v-3.3zM251.6 51.7v-17.6h2.2v13.8l10.1-13.8h2.2v17.6h-2.1v-14l-10.3 14h-2.1zM269.6 42.9c0-5.2 3.5-9.1 8.7-9.1 5.2 0 8.7 3.9 8.7 9.1 0 5.2-3.5 9.1-8.7 9.1-5.2 0-8.7-3.9-8.7-9.1zm15.2 0c0-4.1-2.5-7.2-6.5-7.2s-6.5 3-6.5 7.2c0 4.1 2.5 7.2 6.5 7.2 3.9 0 6.5-3.1 6.5-7.2zM303 51.7v-8.1h-10.3v8.1h-2.2v-17.6h2.2v7.6h10.3v-7.6h2.2v17.6h-2.2zM321.8 51.7v-8.1h-10.3v8.1h-2.2v-17.6h2.2v7.6h10.3v-7.6h2.2v17.6h-2.2zM327.4 42.9c0-5.2 3.5-9.1 8.7-9.1 5.2 0 8.7 3.9 8.7 9.1 0 5.2-3.5 9.1-8.7 9.1-5.2 0-8.7-3.9-8.7-9.1zm15.2 0c0-4.1-2.5-7.2-6.5-7.2s-6.5 3-6.5 7.2c0 4.1 2.5 7.2 6.5 7.2 3.9 0 6.5-3.1 6.5-7.2zM347 43.6v-1.7h6.3v1.7h-6.3zM356.2 51.7v-17.6h2.2v13.8l10.1-13.8h2.2v17.6h-2.2v-14l-10.3 14h-2zM373.6 49.1l1.3-1.4c1.1 1.4 3.1 2.3 5.3 2.3 2.8 0 4.4-1.3 4.4-3.3 0-2.2-1.9-3.1-4.6-3.1h-3.6v-2h3.6c2.3 0 4.3-.9 4.3-2.9s-1.9-3-4.2-3c-2 0-3.7.7-5 2.1l-1.2-1.4c1.3-1.5 3.6-2.7 6.4-2.7 3.5 0 6.3 1.7 6.3 4.7 0 2.5-2.2 3.8-3.8 4.1 1.6.1 4.1 1.5 4.1 4.3 0 2.9-2.6 5.1-6.6 5.1-3.2.1-5.6-1.2-6.7-2.8zM389.1 50c2.1-.1 3.3-1 4-7l1.1-8.8h10.8v15.7h1.6v5.1h-2.2v-3.2h-13.1v3.2h-2.2v-5zm3.5-.2h10.2v-13.7h-6.6l-.9 7c-.5 3.7-1.4 5.7-2.7 6.7zM422 51.7l-1.6-3.9h-8.8l-1.6 3.9h-2.5l7.1-17.6h2.7l7.1 17.6h-2.4zm-6-15.3l-3.7 9.5h7.5l-3.8-9.5zM429.4 51.7v-15.6h-5.6v-2h13.4v2h-5.6v15.7h-2.2zM440 51.7v-17.6h11.5v2h-9.3v5.7h9.2v2h-9.2v6.1h9.3v2h-11.5zM453.9 50.1c2.1 0 3.3-1.2 4-7.1l1.1-8.8h10.8v17.6h-2.2v-15.7h-6.6l-.9 7c-1 7.7-3.1 8.9-6.2 8.9v-1.9zM476.1 34.1v7h4.9c3.5 0 5.5 2.4 5.5 5.3s-2 5.3-5.5 5.3h-7.1v-17.6h2.2zm0 9v6.7h4.6c2.1 0 3.5-1.4 3.5-3.4s-1.4-3.4-3.5-3.4h-4.6zM487.7 42.9c0-5.4 4-9.1 9.1-9.1 3.1 0 5.3 1.5 6.7 3.5l-1.8 1c-1-1.5-2.8-2.6-4.8-2.6-3.9 0-6.8 3-6.8 7.2s2.9 7.2 6.8 7.2c2 0 3.8-1.1 4.8-2.6l1.9 1c-1.5 2-3.6 3.5-6.7 3.5-5.2 0-9.2-3.6-9.2-9.1zM516.9 51.7l-6.7-7.9-1.8 2v5.9h-2.2v-17.6h2.2v9.1l7.8-9.1h2.7l-7.3 8.4 8 9.2h-2.7zM522.1 51.7v-17.6h2.2v13.8l10.1-13.8h2.2v17.6h-2.2v-14l-10.3 14h-2zM540.8 51.7v-17.6h2.2v13.8l10.1-13.8h2.2v17.6h-2.2v-14l-10.3 14h-2zm7.3-18.6c-1.9 0-3.6-.9-4.6-2.3l1-.8c.8 1.2 2.1 1.9 3.7 1.9 1.5 0 2.8-.7 3.6-1.9l1 .8c-1.1 1.4-2.8 2.3-4.7 2.3zM124 83.4l-5.6-7.5-5.6 7.5h-2.8l6.9-9-6.5-8.6h2.7l5.2 7 5.2-7h2.7l-6.4 8.6 6.8 9.1h-2.6zM127.5 74.6c0-5.2 3.5-9.1 8.7-9.1 5.2 0 8.7 3.9 8.7 9.1 0 5.2-3.5 9.1-8.7 9.1-5.2 0-8.7-3.9-8.7-9.1zm15.2 0c0-4.1-2.5-7.2-6.5-7.2s-6.5 3-6.5 7.2c0 4.1 2.5 7.2 6.5 7.2s6.5-3.1 6.5-7.2zM146.2 81.8c2.1 0 3.3-1.2 4-7.1l1.1-8.8h10.8v17.6h-2.2v-15.7h-6.6l-.9 7c-1 7.7-3.1 8.9-6.2 8.9v-1.9zM165 81.6c2.1-.1 3.3-1 4-7l1.1-8.8h10.8v15.7h1.6v5.2h-2.2v-3.2h-13.1v3.2h-2.2v-5.1zm3.5-.1h10.2v-13.7h-6.6l-.9 7c-.4 3.7-1.4 5.7-2.7 6.7zM185.3 83.4v-17.6h2.2v13.8l10.1-13.8h2.2v17.6h-2.2v-14l-10.3 14h-2zM216.5 83.4v-8.1h-10.3v8.1h-2.2v-17.6h2.2v7.6h10.3v-7.6h2.2v17.6h-2.2zM222.8 83.4v-17.6h11.5v2h-9.3v15.7h-2.2z"/></g><circle cx="48.5" cy="59" r="48.5"/><g fill="#F1F1F2"><path d="M21.1 75c0-6.8 3.7-21.6 9.2-39.2.8-2.6 1.7-2.6 5.3-2.6l-3.1 9.8h13.2c1.7 0 1.3 1.1.6 4.2h-15c-3.8 13.3-5.5 22.3-5.5 26.4 0 4.2 2 6.8 6.4 6.8 3 0 5.5-.9 7.3-1.8l.2.2-.3 1.7c-.9 3.4-5.5 4.4-9.1 4.4-5.4 0-9.2-3.3-9.2-9.9zM59 84.9c-8.3 0-13.6-5.4-13.6-12.5 0-6.7 4.8-11 11.3-12.7-4.4-2.1-7.1-6.9-7.1-11.4 0-9.1 7.5-14.3 16.8-14.3 7.3 0 13.6 3.7 13.6 11.7 0 7-5.2 12.1-11.5 14.2 4.5 1.7 7.5 5.2 7.5 10-.1 9.3-8 15-17 15zm2.9-23.1c-6.7 0-11.8 4.2-11.8 10.3 0 4.5 3.5 8.6 9.1 8.6 6.6 0 12.2-4.2 12.2-10.8 0-4.5-3.9-8.1-9.5-8.1zm3.8-23.6c-6.9 0-11.7 4.1-11.7 10.5 0 4.2 3.5 9.1 8.7 9.1 6.6 0 12.2-5.1 12.2-11.4.1-4.7-3.1-8.2-9.2-8.2z"/></g></svg>