<svg xmlns="http://www.w3.org/2000/svg" viewBox="0 0 502.7 70.6" enable-background="new 0 0 502.7 70.6"><linearGradient id="a" gradientUnits="userSpaceOnUse" x1="10.243" y1="12.052" x2="10.243" y2="55.714"><stop offset="0" stop-color="#7CBF43"/><stop offset="1" stop-color="#5CC6F2"/></linearGradient><path fill="url(#a)" d="M0 47.6c0-5.4 3-17.1 7.3-31.1.6-2.1 1.4-2.1 4.2-2.1l-2.5 7.8h10.5c1.3 0 1 .9.5 3.3h-11.9c-3 10.6-4.4 17.7-4.4 21 0 3.3 1.6 5.4 5.1 5.4 2.4 0 4.4-.7 5.8-1.5l.2.2-.3 1.3c-.7 2.7-4.4 3.5-7.3 3.5-4.2.1-7.2-2.5-7.2-7.8z"/><linearGradient id="b" gradientUnits="userSpaceOnUse" x1="32.975" y1="12.052" x2="32.975" y2="55.714"><stop offset="0" stop-color="#7CBF43"/><stop offset="1" stop-color="#5CC6F2"/></linearGradient><path fill="url(#b)" d="M30.1 55.5c-6.6 0-10.8-4.3-10.8-10 0-5.3 3.8-8.8 9-10.1-3.5-1.7-5.7-5.5-5.7-9 0-7.3 6-11.3 13.3-11.3 5.8 0 10.8 2.9 10.8 9.3 0 5.5-4.1 9.6-9.1 11.3 3.6 1.3 6 4.2 6 7.9-.1 7.4-6.4 11.9-13.5 11.9zm2.3-18.3c-5.3 0-9.3 3.3-9.3 8.2 0 3.6 2.8 6.8 7.3 6.8 5.2 0 9.6-3.3 9.6-8.6-.1-3.5-3.2-6.4-7.6-6.4zm3-18.7c-5.5 0-9.3 3.2-9.3 8.3 0 3.3 2.8 7.2 6.9 7.2 5.2 0 9.7-4 9.7-9.1.1-3.7-2.5-6.4-7.3-6.4z"/><path d="M104.1 50.7l-1.9-5.4h-13.6l-2 5.4h-7.7l12.2-31.7h8.4l12.2 31.7h-7.6zm-8.7-24.9l-4.9 13.6h9.9l-5-13.6zM114.1 50.7v-22.9h14.5c4.7 0 7 2.8 7 5.9 0 2.8-1.8 4.6-3.9 5.2 2.5.6 4.4 2.8 4.4 5.6 0 3.5-2.5 6.2-7.1 6.2h-14.9zm15.5-16c0-1.1-.8-1.9-2.1-1.9h-7.3v3.8h7.3c1.2 0 2.1-.9 2.1-1.9zm.4 8.9c0-1.1-.9-2.1-2.4-2.1h-7.5v4.3h7.5c1.5 0 2.4-.8 2.4-2.2zM144.7 50.7v-17.6h-6.4v-5.3h18.9v5.3h-6.4v17.7h-6.1zM158.1 39.2c0-6.5 4.6-12 12.1-12 7.6 0 12.1 5.5 12.1 12s-4.6 12.1-12.1 12.1-12.1-5.5-12.1-12.1zm18 0c0-3.6-2.1-6.6-5.9-6.6-3.7 0-5.8 3.1-5.8 6.6 0 3.6 2.1 6.7 5.8 6.7 3.8 0 5.9-3.1 5.9-6.7zM190.5 47.8v11.7h-6v-31.7h6v2.9c1.8-2.2 4.3-3.5 7.1-3.5 5.9 0 10.2 4.4 10.2 12s-4.3 12.1-10.2 12.1c-2.7 0-5.3-1.2-7.1-3.5zm10.9-8.6c0-3.9-2.3-6.6-5.8-6.6-1.9 0-4.2 1.1-5.2 2.6v8.1c1 1.4 3.2 2.6 5.2 2.6 3.5 0 5.8-2.7 5.8-6.7zM209.2 39.2c0-7 5.1-12 12.1-12 4.7 0 7.5 2 9.1 4.1l-3.9 3.7c-1.1-1.6-2.8-2.5-4.8-2.5-3.7 0-6.2 2.7-6.2 6.6s2.6 6.7 6.2 6.7c2.1 0 3.7-.9 4.8-2.5l3.9 3.7c-1.5 2.1-4.4 4.2-9.1 4.2-7 .1-12.1-4.9-12.1-12zM247.5 50.7l-6.1-8.8-2.8 2.9v5.9h-6v-22.9h6v10.2l8.7-10.2h7.4l-9.1 10.4 9.3 12.5h-7.4zM256.6 50.7v-22.9h6v13.9l9.4-13.9h6.1v22.9h-6v-14.4l-9.7 14.4h-5.8zM281.2 39.2c0-6.6 4.9-12 11.9-12 6.8 0 11.5 5.1 11.5 12.6v1.3h-17c.4 2.9 2.7 5.3 6.6 5.3 1.9 0 4.7-.9 6.1-2.3l2.7 3.9c-2.3 2.1-5.9 3.2-9.4 3.2-7.1.1-12.4-4.6-12.4-12zm11.9-7.2c-3.7 0-5.4 2.8-5.6 5.1h11.3c-.2-2.2-1.7-5.1-5.7-5.1zM325.2 47.8v11.7h-6v-31.7h6v2.9c1.8-2.2 4.3-3.5 7.1-3.5 5.9 0 10.2 4.4 10.2 12s-4.3 12.1-10.2 12.1c-2.7 0-5.3-1.2-7.1-3.5zm11-8.6c0-3.9-2.3-6.6-5.8-6.6-1.9 0-4.2 1.1-5.2 2.6v8.1c1 1.4 3.2 2.6 5.2 2.6 3.4 0 5.8-2.7 5.8-6.7zM343.9 39.2c0-6.6 4.9-12 11.9-12 6.8 0 11.5 5.1 11.5 12.6v1.3h-17c.4 2.9 2.7 5.3 6.6 5.3 1.9 0 4.7-.9 6.1-2.3l2.7 3.9c-2.3 2.1-5.9 3.2-9.4 3.2-7.1.1-12.4-4.6-12.4-12zm11.9-7.2c-3.7 0-5.4 2.8-5.6 5.1h11.3c-.2-2.2-1.7-5.1-5.7-5.1zM402.4 27.8v22.9h-33.1v-22.9h6v17.7h7.5v-17.7h6v17.7h7.5v-17.7h6.1zM404.5 39.2c0-6.6 4.9-12 11.9-12 6.8 0 11.5 5.1 11.5 12.6v1.3h-17c.4 2.9 2.7 5.3 6.6 5.3 1.9 0 4.7-.9 6.1-2.3l2.7 3.9c-2.3 2.1-5.9 3.2-9.4 3.2-7.1.1-12.4-4.6-12.4-12zm11.9-7.2c-3.7 0-5.4 2.8-5.6 5.1h11.2c-.1-2.2-1.7-5.1-5.6-5.1zM430.8 50.7v-22.9h6v8.5h9.5v-8.5h6v22.9h-6v-9.2h-9.5v9.2h-6zM455.3 50.7v-22.9h6v13.9l9.4-13.9h6.1v22.9h-6v-14.4l-9.7 14.4h-5.8zM480.6 50.7l5.3-8.3c-2.6-.7-5.1-3-5.1-7.1 0-4 2.8-7.5 7.9-7.5h13.9v22.9h-6v-7.9h-4.6l-4.5 7.9h-6.9zm16.1-12.9v-4.9h-6.9c-1.7 0-2.8 1-2.8 2.4 0 1.5 1 2.5 2.8 2.5h6.9z"/><path opacity=".14" fill="#414142" d="M50.7 69.9l-1.8-.8 27-69.1 1.9.8z"/></svg>