<?xml version="1.0" encoding="UTF-8" standalone="no"?>
<svg width="348px" height="62px" viewBox="0 0 348 62" version="1.1" xmlns="http://www.w3.org/2000/svg" xmlns:xlink="http://www.w3.org/1999/xlink" xmlns:sketch="http://www.bohemiancoding.com/sketch/ns">
    <title>t8-arrow-down</title>
    <description>Created with Sketch (http://www.bohemiancoding.com/sketch)</description>
    <defs></defs>
    <g id="Page-1" stroke="none" stroke-width="1" fill="none" fill-rule="evenodd" sketch:type="MSPage">
        <path d="M347.38,0 C343.844,1.42 340.288,2.777 336.742,4.167 L326.071,8.234 C322.518,9.601 318.945,10.91 315.38,12.239 L304.679,16.215 L283.222,24.001 C276.072,26.603 268.883,29.083 261.714,31.631 L250.955,35.428 L240.176,39.167 C232.992,41.666 225.789,44.106 218.591,46.563 L196.971,53.851 L173.997,61.471 L151.019,53.857 L129.398,46.573 L107.813,39.177 L97.034,35.441 L75.515,27.844 C71.929,26.575 68.338,25.323 64.766,24.014 L43.31,16.226 L32.611,12.247 C29.046,10.916 25.472,9.609 21.92,8.241 L11.25,4.171 C7.704,2.78 4.148,1.421 0.613,0 C4.302,0.955 7.97,1.972 11.649,2.957 L22.652,6.015 C26.323,7.022 29.974,8.091 33.634,9.136 L44.607,12.284 L66.497,18.752 C70.149,19.818 73.782,20.942 77.421,22.049 L99.248,28.707 L110.141,32.098 L131.902,38.958 L153.627,45.924 L175.316,53 L172.676,53 L194.367,45.931 L216.093,38.965 C223.344,36.671 230.59,34.36 237.855,32.108 L248.749,28.719 L259.662,25.39 C266.943,23.185 274.202,20.914 281.5,18.764 L303.39,12.294 L314.362,9.144 C318.021,8.097 321.672,7.03 325.344,6.021 L336.345,2.96 C340.024,1.975 343.692,0.956 347.38,0" id="Fill-1" fill="#E4E5E6" sketch:type="MSShapeGroup"></path>
    </g>
</svg>