<?xml version="1.0" encoding="UTF-8" standalone="no"?>
<svg width="37px" height="204px" viewBox="0 0 37 204" version="1.1" xmlns="http://www.w3.org/2000/svg" xmlns:xlink="http://www.w3.org/1999/xlink" xmlns:sketch="http://www.bohemiancoding.com/sketch/ns">
    <title>t8-arrow-left</title>
    <description>Created with Sketch (http://www.bohemiancoding.com/sketch)</description>
    <defs></defs>
    <g id="Page-1" stroke="none" stroke-width="1" fill="none" fill-rule="evenodd" sketch:type="MSPage">
        <path d="M36.613,203.5 C35.781,201.429 34.986,199.345 34.172,197.269 L31.79,191.018 C30.989,188.937 30.223,186.844 29.444,184.755 L27.115,178.487 L22.554,165.919 C21.03,161.731 19.577,157.519 18.085,153.321 L15.861,147.018 L13.671,140.704 C12.207,136.496 10.777,132.277 9.338,128.061 L5.069,115.397 L0.606,101.94 L5.066,88.48 L9.333,75.816 L13.665,63.172 L15.853,56.858 L20.303,44.253 C21.046,42.153 21.78,40.05 22.547,37.957 L27.108,25.389 L29.439,19.122 C30.219,17.034 30.984,14.941 31.786,12.86 L34.17,6.61 C34.985,4.533 35.78,2.45 36.613,0.379 C36.054,2.54 35.458,4.688 34.881,6.843 L33.09,13.288 C32.5,15.439 31.873,17.578 31.262,19.721 L29.418,26.149 L25.629,38.971 C25.005,41.11 24.346,43.238 23.698,45.37 L19.798,58.155 L17.811,64.536 L13.793,77.282 L9.735,90.008 L5.613,102.712 L5.613,101.166 L9.731,113.872 L13.8,126.598 C15.144,130.845 16.492,135.089 17.811,139.345 L19.793,145.726 L21.742,152.118 C23.034,156.383 24.363,160.635 25.623,164.91 L29.412,177.732 L31.257,184.159 C31.87,186.302 32.495,188.441 33.086,190.592 L34.879,197.036 C35.456,199.191 36.053,201.339 36.613,203.5" id="Fill-2" fill="#E4E5E6" sketch:type="MSShapeGroup"></path>
    </g>
</svg>