<svg xmlns="http://www.w3.org/2000/svg" viewBox="0 0 81.4 81.4" enable-background="new 0 0 81.4 81.4"><circle stroke="#fff" stroke-width="1.417" stroke-miterlimit="10" cx="40.7" cy="40.7" r="40" fill="none"/><path fill="#fff" d="M66.7 20.7v34c0 3.2-2.8 6-5.6 6h-38.6c-4.8 0-7.3-2.5-7.3-8.5v-24.9h7.1v-6.6h44.4zm-44.4 10.2h-3.5v21.2c0 3.1.7 4.6 1.7 4.6 1.1 0 1.8-1.5 1.8-4.6v-21.2zm40.8-6.6h-37.2v27.8c0 2.2-.4 3.7-1 4.9h36.2c1.2 0 2-1.4 2-2.4v-30.3zm-22.9 8.5h-8.5v-1.2h8.5v1.2zm0 5.3h-8.5v-1.2h8.5v1.2zm0 6.5h-8.5v-1.2h8.5v1.2zm0 5.3h-8.5v-1.2h8.5v1.2zm3.4-18.2h14.3v17.9h-14.3v-17.9z"/><circle stroke="#fff" stroke-width="1.417" stroke-miterlimit="10" cx="228.1" cy="49.7" r="40" fill="none"/><path fill="#fff" d="M202.1 65.3l12.5 6.6c.5.4 1.3.4 1.8 0l11.6-6.1 11.6 6.1c.5.4 1.3.4 1.8 0l12.5-6.6c.5-.3.9-.9.9-1.6v-30.1c0-.7-.4-1.3-.9-1.6-.5-.3-1.2-.3-1.8 0l-11.6 6.1-11.5-6.1c-.5-.4-1.3-.4-1.8 0l-11.6 6.1-11.7-6.1c-.3-.2-.6-.2-.9-.2s-.6.1-.9.2c-.5.3-.9.9-.9 1.6v30.2c.1.6.4 1.2.9 1.5zm27.8-28.5l9 4.4v25.9l-9-4.4v-25.9zm-25.1 0l9 4.4v25.9l-9-4.4v-25.9z"/></svg>