<?xml version="1.0" encoding="UTF-8" standalone="no"?>
<svg width="80px" height="81px" viewBox="0 0 80 81" version="1.1" xmlns="http://www.w3.org/2000/svg" xmlns:xlink="http://www.w3.org/1999/xlink" xmlns:sketch="http://www.bohemiancoding.com/sketch/ns">
    <title>t8-icon-audio</title>
    <description>Created with Sketch (http://www.bohemiancoding.com/sketch)</description>
    <defs></defs>
    <g id="Page-1" stroke="none" stroke-width="1" fill="none" fill-rule="evenodd" sketch:type="MSPage">
        <g id="Group" sketch:type="MSLayerGroup" transform="translate(0.000000, 1.000000)">
            <path d="M79.645,39.725 C79.645,61.684 61.844,79.485 39.885,79.485 C17.926,79.485 0.125,61.684 0.125,39.725 C0.125,17.767 17.926,-0.035 39.885,-0.035 C61.844,-0.035 79.645,17.767 79.645,39.725" id="Fill-24" fill="#F35456" sketch:type="MSShapeGroup"></path>
            <path d="M18.674,65.326 L18.674,15.797 C18.674,12.915 21.01,10.579 23.892,10.579 L61.096,10.579 L61.096,65.326 L18.674,65.326" id="Fill-25" fill="#FFBF42" sketch:type="MSShapeGroup"></path>
            <path d="M61.096,11.436 L23.46,11.436 C21.155,11.436 19.27,13.321 19.27,15.626 C19.27,17.93 21.155,19.816 23.46,19.816 L61.096,19.816" id="Fill-26" fill="#FFFFFF" sketch:type="MSShapeGroup"></path>
            <path d="M61.096,20.672 L23.735,20.672 C20.952,20.672 18.689,18.408 18.689,15.625 C18.689,12.843 20.952,10.579 23.735,10.579 L61.096,10.579 L61.096,12.923 L23.735,12.923 C22.244,12.923 21.032,14.135 21.032,15.625 C21.032,17.116 22.244,18.329 23.735,18.329 L61.096,18.329 L61.096,20.672" id="Fill-27" fill="#63CCCA" sketch:type="MSShapeGroup"></path>
            <path d="M52.935,42.463 C52.935,46.241 49.872,49.303 46.095,49.303 C42.317,49.303 39.255,46.241 39.255,42.463 C39.255,38.686 42.317,35.624 46.095,35.624 C49.872,35.624 52.935,38.686 52.935,42.463" id="Fill-28" fill="#5EC9CB" sketch:type="MSShapeGroup"></path>
            <path d="M58.135,48.243 C57.75,48.243 57.364,48.096 57.07,47.802 C56.482,47.214 56.482,46.26 57.07,45.672 C57.921,44.821 58.389,43.691 58.389,42.488 C58.389,41.265 57.908,40.121 57.033,39.267 C56.438,38.685 56.427,37.731 57.008,37.136 C57.59,36.542 58.544,36.531 59.138,37.112 C60.598,38.538 61.402,40.447 61.402,42.488 C61.402,44.495 60.62,46.382 59.201,47.802 C58.906,48.096 58.521,48.243 58.135,48.243" id="Fill-29" fill="#FFFFFF" sketch:type="MSShapeGroup"></path>
            <path d="M46,31.959 C46,30.256 44.407,29.128 42.863,29.844 L30.39,35.725 C30.083,35.868 29.835,36 29.497,36 L27.42,36 C26.133,36 25,36.926 25,38.213 L25,43 L46,43 L46,31.959" id="Fill-30" fill="#FFFFFF" sketch:type="MSShapeGroup"></path>
            <path d="M27.42,50 L29.497,50 C29.835,50 30.17,49.613 30.477,49.756 L42.863,55.348 C44.407,56.064 46,54.706 46,53.003 L46,43 L25,43 L25,46.748 C25,48.035 26.133,50 27.42,50" id="Fill-31" fill="#E4DDCA" sketch:type="MSShapeGroup"></path>
            <path d="M44.914,57.637 L44.914,57.637 C46.074,57.637 47.023,56.688 47.023,55.527 L47.023,29.435 C47.023,28.274 46.074,27.325 44.914,27.325 C43.754,27.325 42.804,28.274 42.804,29.435 L42.804,55.527 C42.804,56.688 43.754,57.637 44.914,57.637" id="Fill-32" fill="#F45557" sketch:type="MSShapeGroup"></path>
            <path d="M64.182,52.608 C63.711,52.608 63.239,52.428 62.88,52.068 C62.161,51.349 62.161,50.184 62.88,49.465 C64.741,47.602 65.767,45.127 65.767,42.494 C65.767,39.833 64.723,37.339 62.827,35.472 C62.103,34.758 62.094,33.592 62.808,32.868 C63.521,32.143 64.688,32.135 65.412,32.848 C68.016,35.413 69.45,38.839 69.45,42.494 C69.45,46.111 68.041,49.511 65.484,52.068 C65.125,52.428 64.653,52.608 64.182,52.608" id="Fill-33" fill="#FFFFFF" sketch:type="MSShapeGroup"></path>
        </g>
    </g>
</svg>