<svg xmlns:sketch="http://www.bohemiancoding.com/sketch/ns" xmlns="http://www.w3.org/2000/svg" viewBox="0 0.5 80 80" enable-background="new 0 0.5 80 80"><title>t8-icon-ebook</title><g sketch:type="MSLayerGroup"><path sketch:type="MSShapeGroup" fill="#4A4A4A" d="M79.6 40.4c0 22-17.8 39.8-39.8 39.8s-39.7-17.9-39.7-39.8 17.8-39.8 39.8-39.8 39.7 17.8 39.7 39.8"/><path sketch:type="MSShapeGroup" fill="#63CCCA" d="M18.7 66v-49.6c0-2.9 2.3-5.2 5.2-5.2h37.2v54.8h-42.4"/><path sketch:type="MSShapeGroup" fill="#fff" d="M61.1 12.1h-37.6c-2.3 0-4.2 1.9-4.2 4.2 0 2.3 1.9 4.2 4.2 4.2h37.6"/><path sketch:type="MSShapeGroup" fill="#805393" d="M61.1 21.3h-37.4c-2.8 0-5-2.3-5-5 0-2.8 2.3-5 5-5h37.4v2.3h-37.4c-1.5 0-2.7 1.2-2.7 2.7 0 1.5 1.2 2.7 2.7 2.7h37.4v2.3"/><path sketch:type="MSShapeGroup" fill="#fff" d="M44.9 38.7c.4-.4.2-1.1-.4-1.3l-5.4-1.1-5.7-1.3c-.5-.1-1 .4-.9.9l2.4 11.2c.1.6.8.8 1.3.4l1.3-1.3c.3-.3.8-.3 1.1 0l4.6 4.6c.3.3.8.3 1.1 0l4.1-4.1c.3-.3.3-.8 0-1.1l-4.8-4.6c-.3-.3-.3-.8 0-1.1l1.3-1.2"/></g></svg>