<svg xmlns:sketch="http://www.bohemiancoding.com/sketch/ns" xmlns="http://www.w3.org/2000/svg" viewBox="0 0.5 80 80" enable-background="new 0 0.5 80 80"><title>t8-icon-audio</title><g sketch:type="MSLayerGroup"><path sketch:type="MSShapeGroup" fill="#F35456" d="M79.6 40.7c0 22-17.8 39.8-39.8 39.8s-39.7-17.8-39.7-39.8c0-21.9 17.8-39.7 39.8-39.7s39.7 17.8 39.7 39.7"/><path sketch:type="MSShapeGroup" fill="#FFBF42" d="M18.7 66.3v-49.5c0-2.9 2.3-5.2 5.2-5.2h37.2v54.7h-42.4"/><path sketch:type="MSShapeGroup" fill="#fff" d="M61.1 12.4h-37.6c-2.3 0-4.2 1.9-4.2 4.2 0 2.3 1.9 4.2 4.2 4.2h37.6"/><path sketch:type="MSShapeGroup" fill="#63CCCA" d="M61.1 21.7h-37.4c-2.8 0-5-2.3-5-5 0-2.8 2.3-5 5-5h37.4v2.3h-37.4c-1.5 0-2.7 1.2-2.7 2.7 0 1.5 1.2 2.7 2.7 2.7h37.4v2.3"/><path sketch:type="MSShapeGroup" fill="#5EC9CB" d="M52.9 43.5c0 3.8-3.1 6.8-6.8 6.8-3.8 0-6.8-3.1-6.8-6.8 0-3.8 3.1-6.8 6.8-6.8 3.8-.1 6.8 3 6.8 6.8"/><path sketch:type="MSShapeGroup" fill="#fff" d="M58.1 49.2c-.4 0-.8-.1-1.1-.4-.6-.6-.6-1.5 0-2.1.9-.9 1.3-2 1.3-3.2 0-1.2-.5-2.4-1.4-3.2-.6-.6-.6-1.5 0-2.1.6-.6 1.5-.6 2.1 0 1.5 1.4 2.3 3.3 2.3 5.4 0 2-.8 3.9-2.2 5.3-.2.2-.6.3-1 .3"/><path sketch:type="MSShapeGroup" fill="#fff" d="M46 33c0-1.7-1.6-2.8-3.1-2.1l-12.5 5.9c-.3.1-.6.3-.9.3h-2.1c-1.3 0-2.4.9-2.4 2.2v4.7h21v-11"/><path sketch:type="MSShapeGroup" fill="#E4DDCA" d="M27.4 51h2.1c.3 0 .7-.4 1-.2l12.4 5.6c1.5.7 3.1-.6 3.1-2.3v-10.1h-21v3.7c0 1.3 1.1 3.3 2.4 3.3"/><path sketch:type="MSShapeGroup" fill="#F45557" d="M44.9 58.6c1.2 0 2.1-.9 2.1-2.1v-26.1c0-1.2-.9-2.1-2.1-2.1s-2.1.9-2.1 2.1v26.1c0 1.2 1 2.1 2.1 2.1"/><path sketch:type="MSShapeGroup" fill="#fff" d="M64.2 53.6c-.5 0-.9-.2-1.3-.5-.7-.7-.7-1.9 0-2.6 1.9-1.9 2.9-4.3 2.9-7s-1-5.2-2.9-7c-.7-.7-.7-1.9 0-2.6.7-.7 1.9-.7 2.6 0 2.6 2.6 4 6 4 9.6 0 3.6-1.4 7-4 9.6-.4.3-.8.5-1.3.5"/></g></svg>