<svg xmlns:sketch="http://www.bohemiancoding.com/sketch/ns" xmlns="http://www.w3.org/2000/svg" viewBox="46.9 11.4 80 80" enable-background="new 46.9 11.4 80 80"><title>t8-icon-paperbook</title><g sketch:type="MSLayerGroup"><path sketch:type="MSShapeGroup" fill="#E0E1D1" d="M126.9 51.1c0 22.1-17.9 40-40 40s-40-17.9-40-40 17.9-40 40-40 40 17.9 40 40"/><path sketch:type="MSShapeGroup" fill="#FBFFF6" d="M86.4 30.7c.2.4.8.4.9 0 1-2.7 3.7-4.7 6.8-4.7h23c4.3 0 7.8 3.5 7.8 7.8v31.1c0 4.3-3.5 7.8-7.8 7.8h-23c-4 0-5 5.3-7.3 5.3s-3.3-5.3-7.3-5.3h-22.9c-4.3 0-7.8-3.5-7.8-7.8v-31.1c0-4.3 3.5-7.8 7.8-7.8h22.9c3.2 0 5.8 2 6.9 4.7"/><path sketch:type="MSShapeGroup" fill="#DADFC9" d="M70 25v12h9v2h-9v3h9v3h-9v1h9v4h-9v1h9v4h-9v1h9v4h-9v1h9v4h-9v8.1c14-.3 12.9 4.8 16.9 6 0-6.2-.1-54.2-.1-54.2h-16.8"/><path sketch:type="MSShapeGroup" fill="#37BBB6" d="M56 37v2h14v-2h-14"/><path sketch:type="MSShapeGroup" fill="#309F97" d="M79 37h-9v2h9v-2"/><path sketch:type="MSShapeGroup" fill="#37BBB6" d="M56 42v3h14v-3h-14"/><path sketch:type="MSShapeGroup" fill="#309F97" d="M79 42h-9v3h9v-3"/><path sketch:type="MSShapeGroup" fill="#37BBB6" d="M56 46v4h14v-4h-14"/><path sketch:type="MSShapeGroup" fill="#309F97" d="M79 46h-9v4h9v-4"/><path sketch:type="MSShapeGroup" fill="#37BBB6" d="M56 51v4h14v-4h-14"/><path sketch:type="MSShapeGroup" fill="#309F97" d="M79 51h-9v4h9v-4"/><path sketch:type="MSShapeGroup" fill="#37BBB6" d="M56 56v4h14v-4h-14"/><path sketch:type="MSShapeGroup" fill="#309F97" d="M79 56h-9v4h9v-4"/><path sketch:type="MSShapeGroup" fill="#37BBB6" d="M56 61v4h14v-4h-14"/><path sketch:type="MSShapeGroup" fill="#309F97" d="M79 61h-9v4h9v-4"/><path sketch:type="MSShapeGroup" fill="#37BBB6" d="M95 37h23v2h-23v-2z"/><path sketch:type="MSShapeGroup" fill="#37BBB6" d="M95 42h23v3h-23v-3z"/><path sketch:type="MSShapeGroup" fill="#37BBB6" d="M95 46h23v4h-23v-4z"/><path sketch:type="MSShapeGroup" fill="#37BBB6" d="M95 51h23v4h-23v-4z"/><path sketch:type="MSShapeGroup" fill="#37BBB6" d="M95 56h23v4h-23v-4z"/><path sketch:type="MSShapeGroup" fill="#37BBB6" d="M95 61h23v4h-23v-4z"/><path sketch:type="MSShapeGroup" fill="#805393" d="M117.6 26c4 0 7.3 3.3 7.3 7.3v32.1c0 4-3.3 7.3-7.3 7.3h-23.5c-4 0-5 5.3-7.3 5.3s-3.3-5.3-7.3-5.3h-23.4c-4 0-7.3-3.3-7.3-7.3v-32.1c0-4 3.3-7.3 7.3-7.3h23.4c4 0 7.3 3.3 7.3 7.3 0-4 3.3-7.3 7.3-7.3h23.5m-38-2.4h-23.5c-5.3 0-9.7 4.3-9.7 9.7v32.1c0 5.3 4.3 9.7 9.7 9.7h23.4c1 0 2.3 1.1 3.3 3 .9 1.8 1.4 4 4 4s3.1-2.2 4-4c1-1.9 2.2-3 3.3-3h23.5c5.3 0 9.7-4.3 9.7-9.7v-32.1c0-5.3-4.3-9.7-9.7-9.7h-38"/><path sketch:type="MSShapeGroup" fill="#F8554E" d="M104.5 39.4v-12.5c0-.9-.7-1.6-1.6-1.6h-6.6c-.9 0-1.6.7-1.6 1.6v12.5c0 .4.5.7.8.4l3.8-2.9c.2-.1.4-.1.6 0l3.8 2.9c.3.3.8 0 .8-.4"/></g></svg>