<svg xmlns="http://www.w3.org/2000/svg" viewBox="0 0 81.4 81.4" enable-background="new 0 0 81.4 81.4"><circle fill="#805393" cx="40.7" cy="40.7" r="40"/><path fill="#FFBF42" d="M56.3 17.8c.1.5.1 1.1.2 1.7h12.1c-.1 1.3-.1 2.5-.3 3.8-.5 4.4-1.5 8.7-3.5 12.7-1.6 3.1-3.8 5.6-7 7.2-2.6 1.2-5.2 2.4-7.7 3.7l-1.5 1-4 3c-.2.2-.5.5-.5.8v8c0 2.4 1.2 4 3.3 4.9.1 0-2.9.5-5.9.5-3 0-6.1-.5-6-.5 2.1-.9 3.3-2.5 3.3-4.8v-8.1c0-.3-.3-.6-.6-.8-1.2-.9-2.3-1.7-3.5-2.5-.8-.5-1.5-1.2-2.3-1.6-2.2-1.1-4.3-2.1-6.5-3.1-3.8-1.7-6.5-4.6-8.2-8.4-2.1-4.7-3.1-9.7-3.3-14.9 0-.2 0-.4.1-.7h12c.1-.7.2-1.2.2-1.8 10-.1 19.8-.1 29.6-.1zm-38.1 5.3c.5 2.3.9 4.5 1.4 6.6 1.3 5.2 4.3 9 9.1 11.4.5.2 1 .4 1.8.6-2.8-6.1-4-12.2-3.8-18.6h-8.5zm34.4 18.7c.7-.2 1.1-.3 1.5-.5 3.5-1.9 6.5-4.2 8.1-8 1.4-3.3 2.2-6.6 2.5-10.2h-8.4c.3 6.4-.9 12.6-3.7 18.7zM32 68.8v-3.5h19.2v3.5h-19.2zM27.5 70.8v-1.7h28.3v1.7h-28.3z"/><path fill="#fff" d="M41.7 24.3l2.2 4.6 5.1.7-3.7 3.6.9 5.1-4.5-2.4-4.6 2.4.9-5.1-3.7-3.6 5.1-.7z"/></svg>