<?xml version="1.0" encoding="UTF-8" standalone="no"?>
<svg width="131px" height="234px" viewBox="0 0 131 234" version="1.1" xmlns="http://www.w3.org/2000/svg" xmlns:xlink="http://www.w3.org/1999/xlink" xmlns:sketch="http://www.bohemiancoding.com/sketch/ns">
    <title>t8-ripol-logo-white</title>
    <description>Created with Sketch (http://www.bohemiancoding.com/sketch)</description>
    <defs></defs>
    <g id="Page-1" stroke="none" stroke-width="1" fill="none" fill-rule="evenodd" sketch:type="MSPage">
        <path d="M123.143,29.4637077 C122.873,29.3287077 122.603,28.6547077 122.603,28.6547077 C122.603,28.6547077 122.064,27.4407077 121.794,27.1707077 L121.389,26.7657077 L120.985,26.4967077 L120.58,26.0917077 L119.231,25.4177077 C119.231,25.4177077 118.422,25.1477077 118.287,25.1477077 C118.017,25.1477077 117.478,24.7427077 117.478,24.7427077 L116.803,24.3387077 C116.803,24.3387077 116.399,24.0687077 116.129,24.0687077 C115.859,24.0687077 114.915,23.6637077 114.915,23.6637077 L114.376,23.5287077 L113.836,23.3937077 L112.083,23.3937077 L111.273,23.6637077 L110.195,24.0687077 L108.036,24.4737077 L107.227,24.6077077 L101.967,24.6077077 C101.967,24.6077077 100.888,24.4737077 100.618,24.4737077 C100.349,24.4737077 99.404,24.3387077 99.404,24.3387077 L98.19,24.2037077 C96.302,23.9337077 96.977,23.3937077 96.977,23.3937077 L98.056,22.3147077 C98.056,22.3147077 100.888,20.4267077 101.562,18.5387077 C101.832,17.8647077 102.237,17.0547077 101.967,16.5157077 C101.832,16.1107077 102.507,15.3017077 102.507,15.3017077 C102.507,15.3017077 103.99,12.4687077 102.507,10.0417077 C102.102,9.36670767 101.697,9.23170767 100.753,8.42270767 C100.483,8.15270767 100.888,7.74870767 100.888,7.74870767 C100.888,7.74870767 100.888,7.20870767 100.753,6.80470767 C100.618,6.39970767 100.483,6.53470767 100.214,6.39970767 C99.944,6.26470767 99.809,6.39970767 99.539,6.39970767 C99.269,6.39970767 99.135,6.93970767 99.135,6.93970767 C99.135,6.93970767 98.73,7.07370767 98.73,6.66970767 C98.73,6.39970767 98.73,6.12970767 98.595,5.72570767 L98.056,4.91570767 C97.921,4.64670767 97.921,4.64670767 97.651,4.37670767 C97.381,4.10670767 97.246,3.97170767 96.977,3.97170767 C96.707,3.97170767 96.572,3.70270767 96.032,3.70270767 L95.493,3.70270767 L94.953,3.97170767 L94.414,4.51170767 C94.414,4.64670767 94.144,5.32070767 93.74,5.18570767 L93.335,4.10670767 C93.335,4.10670767 93.2,3.83670767 92.795,3.56770767 C92.391,3.29770767 92.391,3.43270767 91.986,3.29770767 C91.581,3.16270767 91.447,3.43270767 91.042,3.70270767 C90.637,4.10670767 90.368,4.10670767 90.368,4.10670767 C90.368,4.10670767 89.558,3.97170767 89.288,3.97170767 C88.344,3.97170767 87.265,4.91570767 87.265,4.91570767 C87.265,4.91570767 86.321,4.37670767 85.512,5.85970767 C85.512,5.85970767 85.377,5.32070767 84.703,5.32070767 C84.298,5.32070767 84.163,5.72570767 84.163,5.72570767 L83.624,5.45570767 C83.354,5.32070767 83.219,5.72570767 83.219,5.72570767 L82.68,6.39970767 L81.87,6.39970767 C81.466,6.39970767 81.466,6.39970767 81.196,6.53470767 C80.926,6.66970767 80.522,6.66970767 79.982,7.47870767 C78.633,10.3107077 81.331,10.9857077 81.331,10.9857077 C81.331,10.9857077 81.331,11.6597077 81.196,11.9297077 C81.061,12.1997077 80.791,13.0087077 80.252,13.1437077 C79.712,13.2787077 79.982,13.8177077 79.982,13.8177077 C79.982,13.8177077 80.522,14.4927077 80.522,14.8967077 C80.522,15.3017077 78.903,16.7847077 78.364,18.1337077 C78.229,18.5387077 77.824,19.0777077 78.229,19.3477077 C78.498,19.6177077 79.442,19.6177077 79.442,19.6177077 C79.442,19.6177077 79.712,20.0227077 79.442,20.2917077 C78.903,20.6967077 79.577,21.1017077 79.577,21.1017077 C79.577,21.1017077 80.252,21.5057077 80.117,21.5057077 C79.982,21.6407077 79.308,21.2357077 79.308,21.7757077 C79.308,22.0457077 79.577,22.1807077 79.577,22.1807077 L79.712,22.5847077 C79.712,22.5847077 78.633,24.4737077 80.387,25.0127077 C80.656,25.1477077 82.68,25.2827077 82.814,25.2827077 C83.084,25.2827077 82.949,25.4177077 82.68,25.5527077 C82.41,25.6867077 80.252,25.5527077 79.982,25.5527077 L78.903,25.0127077 C78.903,25.0127077 78.229,24.3387077 77.689,24.3387077 C77.015,24.3387077 74.317,24.2037077 73.778,24.2037077 C64.202,23.6637077 59.346,22.7197077 58.402,22.5847077 C57.593,22.4497077 55.435,22.0457077 53.142,21.5057077 C50.984,20.9667077 48.016,20.6967077 48.016,20.6967077 L38.979,3.56770767 C38.979,3.56770767 39.789,2.75770767 39.924,2.48770767 C40.733,1.13970767 40.328,0.19570767 40.193,0.0607076698 C38.979,-0.34429233 38.44,1.40970767 38.44,1.40970767 L38.17,1.81370767 C38.17,1.81370767 36.687,0.86970767 36.822,2.62270767 C36.417,2.89270767 35.608,3.02770767 34.529,3.16270767 C20.906,5.05070767 16.995,17.1897077 16.455,20.6967077 C16.05,20.8317077 15.106,20.6967077 15.106,20.6967077 L15.106,22.5847077 L8.228,22.1807077 L6.204,20.4267077 L0.27,22.9897077 L5.935,25.6867077 L8.362,24.3387077 L15.241,24.4737077 L15.241,26.0917077 L16.32,26.2267077 C16.32,26.2267077 17.534,41.3327077 32.775,44.9747077 C33.045,44.9747077 34.933,45.6487077 34.933,45.6487077 L34.933,46.7277077 C35.068,47.1327077 35.877,47.1327077 35.877,47.1327077 L36.282,46.8627077 L36.417,47.2677077 C36.417,47.2677077 36.687,47.9417077 36.687,48.2117077 L36.956,48.7507077 L37.496,49.0207077 L38.035,48.7507077 L38.305,48.2117077 C38.305,48.2117077 38.305,47.4027077 38.17,47.1327077 L37.766,46.0537077 C37.766,45.7837077 37.361,45.1097077 37.361,45.1097077 L44.914,33.3747077 L48.151,34.0497077 L52.602,34.3187077 L53.007,34.9937077 L53.277,35.6677077 C53.277,35.6677077 52.197,35.8027077 52.063,36.0727077 C51.928,36.3427077 52.063,36.6117077 52.063,36.7467077 C52.197,37.0167077 52.197,37.2867077 52.063,37.5557077 C52.063,37.8257077 51.928,39.0397077 51.793,39.3097077 C51.658,39.5797077 51.658,39.9837077 51.388,40.3887077 C51.253,40.7937077 51.253,41.1977077 51.118,41.4677077 C50.984,41.6027077 50.444,42.9517077 50.444,42.9517077 L49.77,44.4347077 C49.77,44.4347077 49.365,45.1097077 49.23,45.6487077 C49.095,46.1887077 48.96,46.4577077 48.96,46.8627077 C48.826,47.2677077 48.556,48.8857077 48.556,49.6947077 C48.556,50.6397077 48.826,51.3137077 48.96,51.5837077 C49.095,51.9877077 49.365,52.7977077 49.635,53.2017077 C49.77,53.6067077 49.904,54.8207077 50.174,55.2247077 C50.444,55.6297077 50.714,56.8437077 50.849,57.2487077 C50.984,57.6527077 51.253,58.4617077 51.658,58.8667077 C51.928,59.2717077 52.872,60.7547077 53.142,61.0247077 C53.411,61.2947077 54.086,61.9687077 54.355,62.1037077 L56.648,63.1827077 C56.918,63.1827077 58.132,63.7227077 58.537,63.5877077 L61.639,63.5877077 C61.639,63.5877077 62.853,63.5877077 63.123,63.7227077 C63.392,63.8567077 66.225,63.1827077 66.494,62.9127077 C66.764,62.7777077 68.113,62.3737077 68.248,62.3737077 C68.518,62.3737077 69.327,61.9687077 69.462,61.8337077 L71.755,60.0807077 C72.159,59.8107077 72.429,60.2157077 72.429,60.2157077 C72.429,60.2157077 72.699,61.0247077 72.699,61.5647077 C72.699,61.9687077 72.968,62.9127077 72.968,63.1827077 C72.968,63.4527077 72.429,64.1267077 72.294,64.3967077 C72.159,64.6667077 71.35,66.8247077 71.35,67.2297077 C71.35,67.6337077 70.541,70.0617077 70.406,70.6007077 C70.271,71.0057077 68.383,75.3217077 68.383,75.7267077 C68.383,76.1307077 67.034,81.5257077 67.034,81.5257077 C67.034,81.5257077 69.057,83.1447077 69.057,83.4147077 C69.057,83.6837077 69.192,87.5957077 69.192,87.9997077 C69.192,88.4047077 69.597,92.3157077 69.597,92.3157077 C69.597,92.3157077 69.866,95.5537077 70.271,97.3067077 C70.675,99.0597077 71.889,102.701708 71.889,102.701708 L74.048,109.175708 L73.643,109.040708 C73.643,109.040708 72.968,109.175708 72.699,109.175708 C72.429,109.175708 72.024,109.715708 72.024,109.715708 L71.485,110.254708 L71.08,111.063708 L70.945,112.142708 C70.945,112.412708 71.08,113.491708 71.08,113.491708 L71.35,114.435708 L72.294,115.379708 C72.294,115.379708 73.103,115.919708 73.643,116.054708 C74.182,116.189708 74.722,115.919708 74.722,116.189708 C74.587,116.998708 74.587,116.593708 73.913,117.672708 L72.699,118.886708 C72.429,119.156708 71.08,120.370708 71.08,120.370708 L69.192,122.123708 L67.034,124.686708 C67.034,124.686708 65.146,126.709708 65.011,126.979708 C64.876,127.248708 63.527,129.002708 63.527,129.002708 L62.853,129.946708 L66.36,129.946708 L67.034,129.137708 L68.652,127.248708 C68.652,127.248708 69.866,125.765708 70.136,125.495708 C70.406,125.225708 71.35,124.281708 71.485,124.012708 C71.62,123.742708 74.452,120.235708 74.317,120.505708 C74.182,121.449708 73.373,122.932708 72.968,123.607708 L72.159,124.686708 L71.215,126.304708 L68.518,129.541708 L67.304,131.160708 L66.225,132.913708 L65.82,133.588708 C65.82,133.588708 66.36,133.857708 66.629,133.857708 L67.438,133.857708 L68.383,133.992708 L69.327,134.127708 L70.406,132.913708 L71.485,131.430708 L72.159,129.811708 L72.699,128.732708 L73.778,126.304708 L73.913,129.407708 L74.317,131.834708 L74.857,135.476708 L75.666,138.039708 C75.666,138.038708 76.071,139.927708 76.071,140.197708 C76.071,140.466708 76.475,142.220708 76.475,142.220708 C76.475,142.220708 76.61,144.378708 76.61,144.648708 L76.745,147.210708 C76.745,147.480708 77.015,150.312708 77.015,150.312708 L76.34,150.717708 C76.34,150.717708 75.666,150.987708 75.396,151.122708 L74.317,151.526708 C74.048,151.661708 73.643,151.931708 73.103,151.931708 C72.699,151.931708 71.62,152.336708 71.35,152.471708 C71.08,152.605708 69.866,153.550708 69.866,153.550708 C69.866,153.550708 68.922,153.684708 68.652,153.684708 C68.383,153.819708 67.843,153.550708 66.764,153.415708 C62.178,152.875708 60.29,159.484708 64.471,158.675708 L67.438,158.270708 L72.159,158.270708 C72.159,158.270708 74.992,158.405708 75.261,158.405708 C75.531,158.405708 78.768,159.079708 78.903,159.079708 C79.173,159.079708 80.252,159.349708 80.656,159.484708 C82.814,159.754708 84.568,159.214708 84.568,159.214708 L85.107,157.191708 C85.107,157.191708 85.512,155.303708 85.377,155.168708 C85.377,154.898708 84.973,154.494708 84.973,154.494708 L84.568,153.819708 L84.028,153.010708 C84.028,153.010708 84.298,151.526708 84.298,151.257708 L84.433,148.559708 C84.433,148.289708 84.703,145.862708 84.703,145.457708 C84.703,145.052708 84.838,141.950708 84.973,141.545708 C85.107,141.141708 85.242,138.443708 85.242,138.443708 C85.242,138.443708 86.051,135.881708 86.051,135.611708 C86.051,135.341708 86.456,134.667708 86.726,133.453708 C87.131,131.699708 86.996,128.597708 86.996,128.193708 L86.996,124.416708 C86.996,124.146708 86.726,121.449708 86.726,121.044708 C86.726,120.640708 86.186,119.021708 86.186,119.021708 L85.512,116.593708 L86.186,116.189708 L86.456,115.514708 L86.456,114.435708 L86.051,113.356708 L84.973,112.817708 L85.377,111.063708 L85.782,108.905708 L86.051,107.287708 L86.456,104.994708 L86.861,101.082708 L87.131,103.240708 C87.131,103.240708 87.4,105.129708 87.535,105.533708 C87.67,105.803708 88.749,110.794708 89.019,111.198708 L90.368,115.110708 C90.502,115.379708 91.716,117.942708 91.716,117.942708 L91.042,118.347708 C91.042,118.347708 90.637,118.616708 90.502,118.886708 C90.368,119.156708 90.502,119.695708 90.502,119.695708 C90.502,119.695708 90.637,120.505708 90.637,120.775708 C90.637,121.044708 91.042,121.449708 91.042,121.449708 L92.121,121.584708 L92.121,123.202708 C92.121,123.607708 92.121,126.304708 92.256,126.574708 C92.391,126.979708 92.661,129.002708 92.661,129.137708 C92.661,129.407708 93.874,132.644708 93.874,132.644708 C93.874,132.644708 94.684,134.532708 95.628,135.476708 C96.572,136.420708 97.246,136.825708 97.381,136.960708 C97.651,137.229708 98.19,137.904708 98.325,138.039708 C98.46,138.308708 98.73,138.713708 98.73,138.713708 L99.135,139.522708 C99.135,139.522708 99.539,141.141708 99.674,141.410708 C99.809,142.220708 100.348,143.299708 100.483,143.569708 C100.618,143.838708 101.427,145.862708 101.427,145.862708 L102.641,148.154708 L103.181,149.368708 L103.586,150.852708 C103.586,150.852708 103.72,152.470708 103.451,152.605708 C103.316,152.875708 102.776,153.280708 102.776,153.549708 C102.776,153.819708 102.641,155.033708 102.641,155.438708 C102.641,156.112708 102.776,156.787708 102.911,157.191708 C103.046,157.596708 103.316,158.540708 103.316,158.540708 L103.72,158.945708 L106.688,159.349708 L107.632,159.214708 L109.655,158.810708 C109.655,158.810708 110.06,158.540708 110.734,158.540708 C111.139,158.540708 111.543,158.540708 111.813,158.675708 L116.938,158.675708 C116.938,158.675708 118.017,158.540708 118.287,158.540708 C118.692,158.540708 120.715,158.405708 120.715,158.405708 C120.715,158.405708 121.389,158.270708 121.659,158.270708 C121.929,158.270708 122.468,158.135708 122.468,158.135708 C122.468,158.135708 122.873,157.731708 122.873,157.596708 C123.682,154.628708 119.366,154.494708 118.827,155.303708 C118.692,155.573708 118.422,155.033708 118.152,154.898708 L117.343,154.089708 C117.073,153.954708 116.399,153.684708 115.994,153.550708 C115.59,153.415708 115.05,153.145708 114.645,153.145708 C114.241,153.010708 113.701,152.740708 113.701,152.740708 L112.487,151.526708 C112.487,151.526708 112.083,151.122708 111.813,150.987708 L111.139,150.717708 C110.869,150.717708 110.734,150.312708 110.464,149.908708 C110.195,149.503708 110.195,149.234708 109.925,148.964708 L109.52,147.885708 C109.385,147.615708 109.115,146.536708 109.115,146.536708 C109.115,146.536708 108.441,144.108708 108.441,143.838708 C108.441,143.569708 108.441,143.029708 108.306,142.625708 C108.171,142.220708 108.171,141.815708 107.902,141.410708 C107.632,140.871708 107.767,140.736708 107.632,140.466708 L107.092,138.039708 C106.957,137.769708 106.957,137.229708 106.957,137.229708 C106.957,137.229708 106.957,136.690708 106.823,136.420708 L106.553,133.992708 C106.418,133.723708 106.553,133.318708 106.553,133.048708 L106.553,131.699708 C106.553,131.295708 106.553,130.755708 106.418,130.486708 C106.418,130.216708 106.283,129.407708 106.148,129.137708 L106.013,127.788708 C106.013,127.383708 105.878,126.979708 105.878,126.709708 C105.878,126.439708 105.878,126.304708 105.339,124.686708 C104.799,123.067708 104.53,122.393708 104.53,122.393708 L105.744,124.416708 C105.744,124.416708 106.013,124.821708 106.148,125.091708 L106.553,125.900708 C106.688,126.170708 106.823,126.844708 107.092,127.248708 C107.227,127.653708 107.497,128.058708 107.497,128.058708 C107.497,128.058708 108.036,129.272708 108.171,129.541708 C108.306,129.811708 108.576,130.890708 108.576,131.160708 C108.576,131.430708 108.846,132.239708 108.981,132.509708 C108.981,132.913708 109.116,133.318708 109.116,133.588708 L109.116,134.667708 C109.116,135.071708 109.25,135.341708 109.385,135.611708 C109.52,135.881708 109.925,135.746708 109.925,135.746708 L110.464,135.206708 C110.464,135.206708 111.139,134.262708 111.273,133.992708 C111.408,133.723708 111.543,133.588708 111.678,133.453708 C111.678,133.183708 112.218,132.239708 112.218,132.239708 L111.273,130.081708 C111.273,130.081708 109.655,127.248708 109.655,127.114708 C109.655,126.844708 108.171,124.956708 108.171,124.956708 L106.688,122.932708 C106.688,122.932708 105.339,121.179708 105.204,120.775708 C105.069,120.370708 104.26,119.426708 104.26,119.426708 L103.181,117.807708 L103.72,117.537708 C103.72,117.537708 104.125,116.728708 104.125,116.324708 C104.125,115.919708 103.855,114.840708 103.855,114.840708 C103.855,114.840708 103.451,113.896708 103.721,113.896708 C104.395,113.761708 103.99,113.761708 103.99,113.761708 L104.395,113.086708 C104.395,113.086708 104.53,112.682708 104.53,112.277708 C104.53,111.873708 104.665,111.738708 104.665,111.468708 C104.53,109.984708 103.316,109.040708 103.316,109.040708 L102.776,108.636708 L101.293,109.445708 L101.158,108.770708 L101.023,107.826708 L101.023,103.915708 C101.023,103.645708 101.158,102.566708 101.158,102.566708 L101.293,100.543708 C101.293,100.543708 101.562,95.1487077 101.427,94.0697077 C101.293,91.6417077 100.618,87.1907077 100.618,85.9767077 C100.618,85.7077077 100.349,83.6837077 100.349,83.6837077 L102.776,82.8747077 C102.776,82.8747077 102.642,82.2007077 102.642,81.9307077 L102.642,79.3677077 C102.642,79.0987077 102.237,77.0747077 102.237,77.0747077 L101.832,74.3777077 C101.832,74.3777077 101.562,72.8937077 101.427,72.4887077 C101.427,72.0847077 101.158,71.0057077 101.158,70.8707077 C101.158,70.6007077 100.753,68.9827077 100.753,68.5777077 C100.618,68.3077077 100.349,67.2287077 100.349,66.9597077 C100.214,66.6897077 99.944,65.8807077 99.944,65.7457077 C99.944,65.4757077 99.674,64.6667077 99.674,64.6667077 C99.674,64.6667077 99.27,63.4527077 99,63.0477077 C98.865,62.6437077 98.46,61.1597077 98.46,61.0247077 C98.46,60.7547077 98.595,60.3507077 98.595,60.3507077 L98.73,59.6757077 C98.73,59.6757077 99.404,57.7877077 99.404,57.5177077 C99.404,57.2477077 99.539,56.9787077 99.674,56.7087077 C99.809,56.4387077 99.944,55.8997077 100.079,55.4947077 C100.214,55.0897077 100.888,53.8767077 100.888,53.6067077 L101.562,52.2577077 L102.102,51.8527077 L104.26,49.9647077 L104.665,49.5607077 C104.665,49.5607077 105.474,48.6157077 105.744,48.3467077 C106.148,47.8067077 107.227,47.1327077 107.227,47.1327077 C107.227,47.1327077 107.902,46.8627077 108.036,46.7277077 C108.306,46.7277077 108.711,46.3237077 108.981,46.1887077 L109.79,45.7837077 L111.273,44.9747077 L112.083,44.4347077 L113.027,43.6257077 L114.241,42.4117077 C114.241,42.4117077 114.78,42.0067077 115.05,41.6027077 C115.32,41.3327077 115.725,41.0627077 115.994,40.6587077 C115.994,40.6587077 116.534,40.2537077 116.804,40.1187077 L117.748,39.3097077 C118.017,39.0397077 118.557,38.6357077 118.557,38.6357077 L119.231,37.8257077 L119.636,37.5557077 L120.31,36.8817077 L120.715,36.3427077 L121.254,35.9377077 L121.659,35.2637077 L121.929,34.3187077 L122.333,33.5097077 L122.738,32.9707077 L123.143,32.1617077 C123.278,31.8917077 123.278,31.4867077 123.412,31.3517077 C123.412,31.0817077 123.547,30.6777077 123.547,30.6777077 C123.547,30.6777077 123.952,30.0027077 123.143,29.4637077 L123.143,29.4637077 Z M36.012,44.1647077 C36.012,44.1647077 24.143,38.7707077 23.469,26.4967077 C23.469,26.4967077 29.403,27.1707077 29.673,27.0357077 C29.943,27.0357077 33.045,26.2267077 33.045,26.2267077 L39.384,26.9007077 L40.059,28.9237077 C40.059,28.9237077 40.733,30.0027077 41.947,31.4867077 C43.026,32.8357077 43.565,32.7007077 43.565,32.7007077 L36.012,44.1647077 L36.012,44.1647077 Z M45.319,30.0027077 C45.319,30.0027077 45.049,29.7337077 44.779,29.5987077 C44.51,29.3287077 43.835,28.9237077 43.565,28.7897077 C43.431,28.6547077 42.352,27.4407077 42.352,27.4407077 L46.263,28.5197077 L45.319,30.0027077 L45.319,30.0027077 Z M32.91,21.7757077 C32.371,21.7757077 31.561,21.2357077 29.808,20.6967077 C29.403,20.5617077 23.604,20.6967077 23.604,20.6967077 C23.604,20.6967077 24.413,9.50170767 37.631,4.10670767 L46.668,20.9667077 C46.802,20.9667077 35.608,22.0457077 32.91,21.7757077 L32.91,21.7757077 Z M49.5,30.1377077 C49.095,30.0027077 46.937,30.1377077 46.937,30.1377077 C47.072,29.8687077 47.881,28.7897077 47.881,28.7897077 L49.095,29.0587077 L50.174,29.3287077 C50.174,29.3287077 50.849,29.3287077 50.849,29.5987077 C50.984,29.8687077 49.905,30.2727077 49.5,30.1377077 L49.5,30.1377077 Z M78.498,27.8447077 L74.317,28.5197077 C69.866,30.5427077 67.304,34.7237077 67.169,35.3987077 C66.899,36.0727077 65.55,38.7707077 65.281,41.6027077 C65.281,42.1417077 64.876,43.3557077 64.876,43.3557077 C64.471,43.3557077 64.336,41.8717077 64.336,41.4677077 C64.336,41.0627077 63.932,40.2537077 63.797,39.8487077 C63.527,39.5797077 62.988,38.3657077 62.853,38.0957077 L62.178,36.8817077 C61.909,36.6117077 61.504,36.0727077 61.504,36.0727077 C61.504,36.0727077 61.369,35.8027077 61.099,35.5327077 C60.83,35.2637077 60.56,34.8587077 60.425,34.4537077 C60.425,34.0497077 60.155,33.3747077 60.02,33.2397077 C59.885,32.9707077 59.751,32.5657077 59.616,32.5657077 C59.346,32.5657077 59.076,32.7007077 59.076,32.7007077 L58.402,33.2397077 L58.267,33.2397077 C58.267,33.2397077 57.323,32.4307077 56.783,32.0267077 C56.244,31.6217077 55.165,30.4077077 54.49,29.5987077 C53.951,28.9237077 53.142,28.2497077 52.737,28.1147077 C52.332,28.1147077 50.984,27.7107077 50.309,27.7107077 C49.635,27.7107077 48.826,27.3057077 48.826,27.3057077 C48.826,27.3057077 50.039,27.3057077 51.388,27.5757077 C52.737,27.8447077 53.681,28.1147077 53.681,28.1147077 C53.951,27.8447077 67.439,27.4407077 69.327,27.5757077 C71.35,27.5757077 78.768,27.3057077 78.498,27.8447077 L78.498,27.8447077 Z M5.406,205.852708 L0.541,205.852708 L0.541,205.109708 L2.095,204.771708 C3.041,204.568708 3.582,204.298708 3.785,203.960708 C3.987,203.622708 4.055,202.811708 3.987,201.460708 L3.649,187.876708 L3.649,186.930708 C3.649,186.795708 3.582,186.525708 3.582,186.187708 C3.582,185.579708 3.514,185.173708 3.244,184.971708 C3.041,184.768708 2.501,184.565708 1.554,184.430708 L0.271,184.227708 L0.271,183.484708 L10.948,183.484708 C12.772,183.484708 14.259,183.619708 15.408,183.822708 C16.557,184.025708 17.503,184.497708 18.246,185.106708 C18.99,185.781708 19.395,186.728708 19.463,188.012708 C19.53,189.295708 19.26,190.512708 18.719,191.728708 C18.179,192.945708 17.3,194.026708 16.016,194.837708 C14.8,195.648708 13.246,196.121708 11.421,196.189708 C10.069,196.256708 8.785,196.053708 7.569,195.648708 C7.637,195.242708 7.704,194.905708 7.907,194.567708 C8.785,194.905708 9.731,195.040708 10.745,195.040708 C13.854,194.972708 15.408,193.215708 15.408,189.566708 C15.408,188.147708 15.205,187.065708 14.8,186.390708 C14.327,185.714708 13.719,185.241708 12.908,184.971708 C12.097,184.768708 11.083,184.633708 10.002,184.700708 C8.92,184.700708 7.974,184.768708 7.231,184.903708 L6.826,201.392708 C6.758,202.271708 6.758,202.879708 6.826,203.284708 C6.893,203.622708 7.028,203.960708 7.299,204.163708 C7.569,204.365708 8.042,204.568708 8.785,204.703708 L10.88,205.041708 L10.88,205.785708 L5.406,205.785708 L5.406,205.852708 L5.406,205.852708 Z M42.372,188.417708 C39.398,191.864708 36.898,194.905708 34.735,197.540708 C32.641,200.176708 30.478,202.946708 28.316,205.852708 L23.72,205.920708 L23.72,205.177708 L25.275,204.839708 C26.288,204.636708 26.896,204.298708 27.032,203.960708 C27.167,203.622708 27.234,202.811708 27.167,201.527708 L26.829,187.944708 L26.829,186.322708 C26.829,185.714708 26.694,185.308708 26.491,185.106708 C26.288,184.903708 25.748,184.700708 24.869,184.565708 L23.585,184.362708 L23.585,183.619708 L33.654,183.619708 L33.654,184.362708 L32.37,184.565708 C31.492,184.700708 30.951,184.903708 30.748,185.106708 C30.546,185.308708 30.41,185.714708 30.343,186.322708 L30.343,187.944708 L29.937,200.987708 L30.14,200.987708 C31.559,199.297708 33.181,197.405708 34.871,195.310708 C36.56,193.215708 38.317,191.053708 40.007,188.823708 C41.696,186.592708 43.048,184.835708 44.061,183.484708 L49.265,183.484708 L49.265,184.227708 L47.981,184.430708 C47.102,184.565708 46.562,184.768708 46.359,184.971708 C46.156,185.173708 46.021,185.579708 45.953,186.187708 L45.953,187.809708 L45.683,201.460708 L45.683,203.555708 C45.683,203.757708 45.886,204.028708 46.156,204.230708 C46.426,204.433708 46.9,204.636708 47.575,204.771708 L49.197,205.109708 L49.197,205.852708 L39.466,205.852708 L39.466,205.109708 L41.02,204.771708 C41.696,204.636708 42.169,204.433708 42.439,204.230708 C42.71,204.028708 42.845,203.757708 42.845,203.555708 C42.845,203.352708 42.912,202.608708 42.912,201.460708 L42.575,188.417708 L42.372,188.417708 L42.372,188.417708 Z M58.523,205.852708 L53.522,205.852708 L53.522,205.109708 L55.144,204.771708 C56.158,204.501708 56.766,204.230708 56.901,203.960708 C57.036,203.690708 57.104,202.811708 57.104,201.460708 L56.766,187.876708 L56.766,186.187708 C56.698,185.579708 56.631,185.173708 56.428,184.971708 C56.225,184.768708 55.685,184.633708 54.739,184.430708 L53.387,184.227708 L53.387,183.484708 L78.391,183.484708 L78.391,184.227708 L76.972,184.430708 C76.093,184.565708 75.553,184.768708 75.35,184.971708 C75.147,185.173708 75.012,185.579708 75.012,186.187708 L75.012,187.471708 C75.012,187.606708 75.012,187.741708 74.945,187.944708 L74.607,201.527708 C74.607,202.676708 74.607,203.352708 74.674,203.690708 C74.742,203.960708 74.877,204.230708 75.147,204.365708 C75.418,204.501708 75.891,204.703708 76.566,204.839708 L78.188,205.177708 L78.188,205.920708 L68.119,205.920708 L68.119,205.177708 L69.741,204.839708 C70.417,204.703708 70.89,204.568708 71.16,204.433708 C71.431,204.298708 71.566,204.028708 71.633,203.622708 C71.701,203.284708 71.701,202.541708 71.701,201.527708 L71.16,184.768708 L60.415,184.768708 L59.942,201.460708 C59.875,202.406708 59.942,203.082708 60.01,203.487708 C60.077,203.892708 60.28,204.163708 60.55,204.365708 C60.821,204.501708 61.294,204.703708 61.902,204.771708 L63.591,205.109708 L63.591,205.852708 L58.523,205.852708 L58.523,205.852708 Z M90.082,204.028708 C88.866,203.217708 87.987,202.000708 87.244,200.446708 C86.568,198.824708 86.23,196.864708 86.162,194.499708 C86.095,191.053708 86.838,188.485708 88.325,186.795708 C89.812,185.106708 91.704,184.227708 94.002,184.227708 C95.488,184.227708 96.772,184.565708 97.989,185.308708 C99.205,186.052708 100.151,187.201708 100.827,188.687708 C101.57,190.242708 101.908,192.134708 101.841,194.499708 C101.773,196.932708 101.435,198.959708 100.692,200.581708 C100.016,202.203708 99.07,203.419708 97.854,204.163708 C96.705,204.906708 95.353,205.311708 93.934,205.311708 C92.583,205.177708 91.298,204.771708 90.082,204.028708 L90.082,204.028708 Z M98.124,205.649708 C99.476,205.177708 100.76,204.433708 101.908,203.419708 C103.057,202.406708 104.003,201.189708 104.747,199.635708 C105.49,198.081708 105.896,196.324708 105.963,194.431708 C106.031,192.201708 105.558,190.242708 104.612,188.485708 C103.665,186.728708 102.246,185.376708 100.354,184.362708 C98.529,183.416708 96.435,182.876708 94.069,182.876708 C90.555,182.876708 87.649,183.957708 85.419,186.119708 C83.189,188.282708 82.108,191.053708 82.243,194.431708 C82.311,196.459708 82.716,198.216708 83.459,199.703708 C84.203,201.189708 85.149,202.473708 86.298,203.419708 C87.447,204.433708 88.73,205.109708 90.082,205.649708 C91.434,206.123708 92.785,206.393708 94.137,206.393708 C95.421,206.393708 96.772,206.123708 98.124,205.649708 L98.124,205.649708 Z M123.06,182.943708 C123.128,183.078708 123.263,183.687708 123.466,184.700708 C123.601,185.241708 123.736,186.052708 123.939,186.998708 C124.142,187.944708 124.277,188.890708 124.48,189.701708 C124.682,190.512708 124.885,191.390708 125.088,192.336708 C125.29,193.283708 125.493,194.026708 125.628,194.634708 C125.764,195.107708 125.899,195.648708 126.034,196.391708 C126.169,197.067708 126.304,197.743708 126.439,198.216708 C126.845,199.770708 127.115,200.716708 127.115,201.122708 C127.318,201.933708 127.521,202.608708 127.723,203.082708 C127.791,203.352708 127.926,203.555708 128.061,203.825708 C128.196,204.095708 128.331,204.298708 128.602,204.501708 C128.872,204.703708 129.142,204.839708 129.413,204.974708 L130.224,205.311708 L130.224,206.055708 L121.979,206.055708 L121.979,205.311708 L123.466,204.974708 C123.669,204.974708 123.871,204.906708 124.074,204.771708 C124.277,204.703708 124.412,204.703708 124.48,204.568708 C124.615,204.433708 124.682,204.230708 124.75,204.028708 C124.75,203.757708 124.682,203.217708 124.547,202.406708 L124.006,199.973708 L119.817,185.241708 L118.6,185.241708 C118.533,185.511708 118.465,185.714708 118.398,185.849708 C118.398,186.052708 118.33,186.187708 118.195,186.390708 C118.127,186.592708 118.06,186.863708 117.992,187.133708 C117.924,187.403708 117.857,187.606708 117.789,187.809708 C117.654,188.349708 117.384,189.228708 117.046,190.444708 C116.843,191.188708 116.505,192.269708 116.1,193.756708 C115.965,194.296708 115.762,194.837708 115.627,195.445708 C115.492,195.986708 115.289,196.526708 115.086,197.135708 C114.951,197.608708 114.816,198.013708 114.613,198.486708 L114.14,199.905708 C113.87,200.784708 113.667,201.662708 113.397,202.473708 C113.329,202.608708 113.329,202.811708 113.262,203.014708 C113.194,203.217708 113.194,203.352708 113.126,203.487708 C113.059,203.757708 112.991,203.892708 112.991,204.028708 C112.924,204.433708 113.397,204.839708 114.41,205.041708 L115.829,205.379708 L115.829,206.123708 L108.261,206.123708 L108.261,205.379708 C109.072,205.041708 110.22,203.555708 111.504,200.784708 C112.856,198.081708 114.005,195.175708 114.951,192.201708 C115.897,189.228708 116.37,187.201708 116.302,186.187708 C116.302,185.714708 116.032,185.444708 115.559,185.241708 C115.019,185.038708 114.072,185.038708 112.586,185.106708 C112.518,184.903708 112.451,184.633708 112.451,184.430708 C112.451,184.227708 112.518,184.025708 112.586,183.754708 L112.991,183.754708 C113.194,183.754708 113.329,183.822708 113.464,183.822708 L117.384,183.822708 C118.533,183.551708 120.425,183.281708 123.06,182.943708 L123.06,182.943708 Z M15.746,216.732708 L15.746,217.273708 C14.935,217.408708 14.259,217.678708 13.651,218.084708 C13.043,218.489708 12.299,219.030708 11.353,219.841708 C10.88,220.246708 10.272,220.787708 9.596,221.463708 L8.38,222.679708 L8.245,222.814708 L8.042,223.017708 C8.042,223.017708 7.974,223.085708 7.907,223.220708 L7.907,223.490708 L8.042,223.760708 L8.583,224.571708 C8.65,224.639708 8.785,224.909708 9.056,225.247708 C9.326,225.653708 9.529,225.991708 9.731,226.261708 C10.272,226.937708 10.745,227.545708 11.151,228.153708 C11.421,228.559708 11.691,228.829708 11.826,229.099708 C12.029,229.302708 12.232,229.572708 12.435,229.842708 L13.719,231.397708 C13.989,231.735708 14.327,231.870708 14.529,231.870708 C14.597,231.870708 14.732,231.802708 15.003,231.667708 C15.07,231.600708 15.138,231.600708 15.138,231.532708 L15.408,231.262708 L15.543,231.126708 L15.949,231.735708 C15.678,231.937708 15.34,232.208708 14.732,232.546708 C14.192,232.883708 13.786,233.086708 13.516,233.086708 C12.975,233.086708 11.691,231.937708 9.731,229.707708 C9.258,229.167708 8.853,228.694708 8.583,228.356708 L7.366,226.802708 C7.163,226.531708 7.028,226.328708 6.893,226.126708 C6.758,225.923708 6.555,225.653708 6.285,225.315708 L6.082,224.977708 L5.812,224.639708 C5.609,224.436708 5.542,224.234708 5.542,224.166708 C5.542,224.031708 5.744,223.693708 6.15,223.287708 L9.799,219.098708 C10.61,218.151708 11.015,217.611708 11.015,217.476708 C11.015,217.408708 10.948,217.341708 10.948,217.341708 C10.88,217.273708 10.813,217.273708 10.745,217.273708 C10.745,217.273708 10.677,217.273708 10.61,217.205708 L10.475,217.138708 L9.934,217.070708 L9.934,216.530708 L15.746,216.530708 L15.746,216.732708 L15.746,216.732708 Z M0,216.732708 L6.961,216.732708 L6.961,217.341708 L6.082,217.476708 C5.474,217.543708 5.069,217.678708 4.933,217.881708 C4.798,218.016708 4.731,218.354708 4.731,218.760708 L4.731,219.841708 L4.46,229.640708 C4.46,230.586708 4.46,231.194708 4.595,231.397708 C4.731,231.600708 5.136,231.802708 5.744,231.937708 L6.826,232.140708 L6.826,232.748708 L0.135,232.748708 L0.135,232.140708 L1.217,231.937708 C1.69,231.870708 2.027,231.735708 2.163,231.600708 C2.365,231.464708 2.433,231.262708 2.501,231.059708 C2.568,230.789708 2.568,230.316708 2.501,229.640708 L2.298,219.841708 L2.298,218.692708 C2.298,218.287708 2.23,218.016708 2.095,217.814708 C1.96,217.678708 1.554,217.543708 1.014,217.408708 L0.135,217.273708 L0.135,216.732708 L0,216.732708 L0,216.732708 Z M29.87,216.327708 C29.87,216.462708 30.005,216.867708 30.14,217.611708 C30.208,218.016708 30.343,218.557708 30.478,219.233708 C30.613,219.908708 30.748,220.584708 30.884,221.125708 C31.019,221.733708 31.154,222.341708 31.289,223.017708 C31.424,223.693708 31.559,224.234708 31.627,224.639708 C31.694,224.977708 31.83,225.382708 31.897,225.855708 C32.032,226.328708 32.1,226.802708 32.167,227.207708 C32.438,228.356708 32.641,229.032708 32.708,229.234708 C32.843,229.842708 33.046,230.316708 33.181,230.653708 L33.384,231.194708 C33.451,231.397708 33.587,231.532708 33.789,231.667708 C33.992,231.802708 34.127,231.937708 34.398,232.005708 L34.938,232.208708 L34.938,232.748708 L29.059,232.748708 L29.059,232.208708 L30.14,231.937708 C30.275,231.937708 30.41,231.870708 30.546,231.802708 C30.681,231.802708 30.816,231.735708 30.884,231.667708 C31.019,231.600708 31.019,231.464708 31.086,231.262708 C31.086,231.059708 31.019,230.721708 30.951,230.113708 C30.816,229.572708 30.681,228.964708 30.546,228.356708 L27.505,217.881708 L26.626,217.881708 C26.558,218.084708 26.491,218.219708 26.491,218.287708 C26.491,218.422708 26.423,218.557708 26.356,218.692708 L26.221,219.165708 C26.153,219.368708 26.153,219.503708 26.085,219.638708 C25.95,220.044708 25.815,220.652708 25.545,221.530708 C25.41,222.071708 25.207,222.814708 24.869,223.896708 L24.531,225.112708 L23.45,228.356708 C23.247,229.032708 23.112,229.640708 22.909,230.181708 L22.842,230.586708 C22.774,230.721708 22.774,230.856708 22.774,230.924708 C22.707,231.126708 22.707,231.262708 22.639,231.329708 C22.639,231.667708 22.977,231.870708 23.653,232.073708 L24.666,232.343708 L24.666,232.748708 L19.26,232.748708 L19.26,232.208708 C19.868,231.937708 20.679,230.856708 21.625,228.896708 C22.571,226.937708 23.382,224.909708 24.126,222.747708 C24.801,220.584708 25.139,219.165708 25.139,218.422708 C25.139,218.084708 24.937,217.881708 24.599,217.746708 C24.261,217.611708 23.517,217.611708 22.504,217.678708 C22.436,217.543708 22.436,217.341708 22.436,217.205708 C22.436,217.070708 22.504,216.935708 22.571,216.732708 L22.842,216.732708 C22.977,216.732708 23.044,216.732708 23.18,216.800708 L26.018,216.800708 C26.694,216.732708 28.045,216.597708 29.87,216.327708 L29.87,216.327708 Z M43.791,222.003708 C43.859,221.733708 43.926,221.530708 43.994,221.328708 C44.061,221.125708 44.129,220.855708 44.196,220.517708 C44.332,220.044708 44.467,219.571708 44.602,219.233708 C44.669,219.030708 44.737,218.895708 44.737,218.760708 C44.737,218.625708 44.805,218.489708 44.872,218.354708 C44.872,218.219708 44.94,218.084708 45.007,217.949708 C45.075,217.746708 45.075,217.678708 45.075,217.678708 L45.548,217.611708 C45.548,217.611708 45.616,217.678708 45.616,217.814708 C45.616,217.881708 45.683,218.016708 45.683,218.016708 L47.981,224.909708 C47.035,225.044708 46.089,225.112708 45.143,225.112708 C44.332,225.112708 43.588,225.044708 42.845,224.909708 C43.115,224.234708 43.453,223.220708 43.791,222.003708 L43.791,222.003708 Z M47.305,216.395708 C46.832,216.462708 46.494,216.530708 46.224,216.530708 C45.751,216.597708 45.278,216.665708 44.737,216.732708 C44.399,216.800708 43.926,216.800708 43.25,216.867708 L41.426,216.867708 C41.155,217.138708 41.088,217.476708 41.291,217.814708 L41.628,217.814708 L42.169,217.746708 L42.71,217.746708 C43.318,217.746708 43.656,217.949708 43.656,218.287708 L43.656,218.692708 C43.453,220.044708 42.912,221.868708 42.102,224.098708 C41.899,224.706708 41.628,225.315708 41.358,225.991708 L40.344,228.423708 C39.736,229.775708 39.263,230.721708 38.858,231.194708 C38.452,231.735708 37.979,232.005708 37.438,232.140708 L37.438,232.748708 L42.71,232.748708 L42.642,232.208708 L41.764,231.937708 C41.628,231.937708 41.493,231.870708 41.358,231.802708 C41.223,231.735708 41.088,231.667708 41.02,231.600708 C40.953,231.532708 40.885,231.397708 40.885,231.329708 C40.885,231.194708 40.953,230.924708 41.02,230.586708 C41.155,230.248708 41.358,229.572708 41.764,228.559708 L42.575,226.058708 C42.71,226.058708 42.912,226.058708 43.115,225.991708 L47.643,225.991708 C48.048,225.991708 48.319,226.058708 48.521,226.058708 L49.941,230.586708 C50.008,230.924708 50.076,231.126708 50.143,231.329708 C50.143,231.600708 49.738,231.802708 48.994,232.005708 L48.183,232.208708 L48.183,232.748708 L53.793,232.748708 L53.793,232.208708 L52.982,231.937708 C52.711,231.870708 52.509,231.667708 52.306,231.397708 C52.171,231.126708 51.9,230.586708 51.63,229.775708 C51.63,229.707708 51.495,229.437708 51.36,228.896708 C51.225,228.491708 51.157,228.221708 51.089,228.153708 L48.454,218.084708 C48.454,218.016708 48.454,217.949708 48.386,217.881708 L48.319,217.678708 L48.251,217.341708 C48.251,217.273708 48.251,217.205708 48.183,217.070708 C48.183,216.935708 48.116,216.867708 48.116,216.867708 C48.116,216.597708 48.048,216.462708 47.981,216.327708 C47.711,216.327708 47.508,216.395708 47.305,216.395708 L47.305,216.395708 Z M69.606,220.517708 C69.268,219.435708 68.727,218.625708 68.051,218.016708 C67.376,217.476708 66.43,217.205708 65.281,217.138708 C64.335,217.138708 63.389,217.341708 62.443,217.611708 C61.564,217.949708 60.753,218.625708 60.077,219.706708 C59.402,220.787708 59.064,222.274708 59.131,224.098708 C59.199,226.869708 59.875,228.896708 61.294,230.181708 C62.645,231.464708 64.2,232.140708 65.822,232.140708 C66.835,232.140708 67.781,231.802708 68.592,231.126708 C69.403,230.451708 69.876,229.640708 70.146,228.694708 L70.89,228.694708 L70.417,232.073708 L69.673,232.343708 L68.592,232.681708 C68.187,232.748708 67.714,232.883708 67.038,232.951708 C66.362,233.019708 65.754,233.086708 65.213,233.086708 C63.389,233.086708 61.834,232.681708 60.483,231.870708 C59.131,231.059708 58.05,230.045708 57.374,228.694708 C56.631,227.342708 56.293,225.923708 56.293,224.301708 C56.293,222.409708 56.766,220.855708 57.645,219.638708 C58.523,218.422708 59.604,217.543708 60.956,217.003708 C62.24,216.462708 63.591,216.192708 64.875,216.259708 C65.213,216.259708 65.889,216.327708 66.903,216.462708 C67.376,216.530708 67.849,216.597708 68.322,216.597708 C68.998,216.597708 69.741,216.462708 70.484,216.259708 L70.619,220.179708 L69.606,220.517708 L69.606,220.517708 Z M87.852,220.517708 C87.514,219.435708 86.974,218.625708 86.298,218.016708 C85.622,217.476708 84.676,217.205708 83.527,217.138708 C82.581,217.138708 81.635,217.341708 80.689,217.611708 C79.81,217.949708 78.999,218.625708 78.324,219.706708 C77.648,220.787708 77.31,222.274708 77.377,224.098708 C77.445,226.869708 78.121,228.896708 79.54,230.181708 C80.891,231.464708 82.446,232.140708 84.068,232.140708 C85.081,232.140708 86.027,231.802708 86.838,231.126708 C87.649,230.451708 88.122,229.640708 88.393,228.694708 L89.136,228.694708 L88.663,232.073708 L87.92,232.343708 L86.838,232.681708 C86.433,232.748708 85.96,232.883708 85.284,232.951708 C84.608,233.019708 84,233.086708 83.459,233.086708 C81.635,233.086708 80.08,232.681708 78.729,231.870708 C77.377,231.059708 76.296,230.045708 75.62,228.694708 C74.877,227.342708 74.539,225.923708 74.539,224.301708 C74.539,222.409708 75.012,220.855708 75.891,219.638708 C76.769,218.422708 77.85,217.543708 79.202,217.003708 C80.486,216.462708 81.838,216.192708 83.121,216.259708 C83.459,216.259708 84.135,216.327708 85.149,216.462708 C85.622,216.530708 86.095,216.597708 86.568,216.597708 C87.244,216.597708 87.987,216.462708 88.73,216.259708 L88.866,220.179708 L87.852,220.517708 L87.852,220.517708 Z M105.895,220.246708 C103.801,222.747708 101.976,224.909708 100.422,226.802708 C98.935,228.694708 97.381,230.653708 95.826,232.748708 L92.515,232.816708 L92.515,232.275708 L93.596,232.005708 C94.34,231.870708 94.745,231.667708 94.813,231.397708 C94.948,231.126708 94.948,230.586708 94.88,229.640708 L94.677,219.908708 L94.677,218.692708 C94.677,218.287708 94.61,217.949708 94.475,217.814708 C94.34,217.678708 93.934,217.543708 93.258,217.408708 L92.312,217.273708 L92.312,216.732708 L99.476,216.732708 L99.476,217.273708 L98.597,217.408708 C97.989,217.543708 97.583,217.678708 97.448,217.814708 C97.313,217.949708 97.178,218.219708 97.178,218.692708 L97.178,219.908708 L96.908,229.302708 L97.043,229.302708 C98.056,228.085708 99.205,226.734708 100.422,225.247708 C101.638,223.760708 102.854,222.206708 104.071,220.584708 C105.287,219.030708 106.233,217.746708 106.977,216.732708 L110.693,216.732708 L110.693,217.273708 L109.747,217.408708 C109.139,217.476708 108.734,217.611708 108.599,217.746708 C108.463,217.881708 108.396,218.151708 108.328,218.625708 L108.328,219.841708 L108.058,229.572708 L108.058,231.059708 C108.058,231.262708 108.193,231.397708 108.396,231.532708 C108.599,231.667708 108.937,231.802708 109.409,231.937708 L110.558,232.208708 L110.558,232.748708 L103.598,232.748708 L103.598,232.208708 L104.747,231.937708 C105.22,231.802708 105.558,231.667708 105.76,231.532708 C105.963,231.397708 106.031,231.194708 106.098,231.059708 L106.098,229.572708 L105.828,220.179708 L105.896,220.179708 L105.895,220.246708 L105.895,220.246708 Z M129.953,216.732708 L129.953,217.273708 C129.142,217.408708 128.467,217.678708 127.858,218.084708 C127.25,218.489708 126.507,219.030708 125.561,219.841708 C125.088,220.246708 124.48,220.787708 123.804,221.463708 L123.128,222.139708 C122.925,222.341708 122.722,222.544708 122.52,222.679708 L122.385,222.814708 L122.182,223.017708 C122.182,223.017708 122.114,223.085708 122.047,223.220708 L122.047,223.490708 L122.114,223.625708 L122.182,223.760708 L122.722,224.571708 C122.79,224.639708 122.925,224.909708 123.196,225.247708 C123.466,225.653708 123.669,225.991708 123.871,226.261708 C124.412,226.937708 124.885,227.545708 125.29,228.153708 C125.561,228.559708 125.831,228.829708 125.966,229.099708 C126.169,229.302708 126.372,229.572708 126.574,229.842708 C127.115,230.586708 127.588,231.059708 127.858,231.397708 C128.129,231.735708 128.467,231.870708 128.669,231.870708 C128.737,231.870708 128.872,231.802708 129.142,231.667708 C129.21,231.600708 129.278,231.600708 129.278,231.532708 L129.413,231.397708 L129.548,231.262708 L129.683,231.126708 L130.089,231.735708 C129.886,231.937708 129.48,232.208708 128.872,232.546708 C128.331,232.883708 127.926,233.086708 127.656,233.086708 C127.115,233.086708 125.831,231.937708 123.871,229.707708 C123.398,229.167708 122.993,228.694708 122.723,228.356708 L121.506,226.802708 C121.303,226.531708 121.168,226.328708 121.033,226.126708 C120.898,225.923708 120.695,225.653708 120.425,225.315708 L120.222,224.977708 L119.952,224.639708 C119.749,224.436708 119.682,224.234708 119.682,224.166708 C119.682,224.031708 119.884,223.693708 120.29,223.287708 L123.939,219.098708 C124.75,218.151708 125.155,217.611708 125.155,217.476708 C125.155,217.408708 125.088,217.341708 125.088,217.341708 C125.02,217.273708 124.953,217.273708 124.885,217.273708 C124.885,217.273708 124.817,217.273708 124.75,217.205708 L124.615,217.138708 L124.007,217.070708 L124.007,216.530708 L129.953,216.530708 L129.953,216.732708 L129.953,216.732708 Z M114.208,216.732708 L121.168,216.732708 L121.168,217.341708 L120.29,217.476708 C119.681,217.543708 119.276,217.678708 119.141,217.881708 C119.006,218.016708 118.938,218.354708 118.938,218.760708 L118.938,219.841708 L118.668,229.640708 C118.668,230.586708 118.668,231.194708 118.803,231.397708 C118.938,231.600708 119.276,231.802708 119.952,231.937708 L121.033,232.140708 L121.033,232.748708 L114.343,232.748708 L114.343,232.140708 L115.424,231.937708 C115.897,231.870708 116.167,231.735708 116.37,231.600708 C116.573,231.464708 116.64,231.262708 116.708,231.059708 C116.776,230.789708 116.776,230.316708 116.708,229.640708 L116.505,219.841708 L116.505,218.692708 C116.505,218.287708 116.438,218.016708 116.303,217.814708 C116.167,217.678708 115.762,217.543708 115.154,217.408708 L114.275,217.273708 L114.275,216.732708 L114.208,216.732708 L114.208,216.732708 Z" id="Imported-Layers" fill="#FFFFFF" sketch:type="MSShapeGroup"></path>
    </g>
</svg>