<svg xmlns="http://www.w3.org/2000/svg" viewBox="0 0 269 81.6" enable-background="new 0 0 269 81.6"><title>Slice 1</title><path fill="#F35456" d="M0 0h269v55.8h-269z"/><g fill="#fff"><path d="M17.6 33.6c0-2.5 1.4-8 3.4-14.6.3-1 .7-1 2-1l-1.2 3.7h4.9c.6 0 .5.4.2 1.5h-5.6c-1.4 5-2.1 8.3-2.1 9.8s.7 2.5 2.4 2.5c1.1 0 2.1-.3 2.7-.7l.1.1-.1.6c-.3 1.3-2.1 1.6-3.4 1.6-1.9.2-3.3-1.1-3.3-3.5zM31.7 37.3c-3.1 0-5.1-2-5.1-4.7 0-2.5 1.8-4.1 4.2-4.7-1.6-.8-2.7-2.6-2.7-4.2 0-3.4 2.8-5.3 6.2-5.3 2.7 0 5.1 1.4 5.1 4.4 0 2.6-1.9 4.5-4.3 5.3 1.7.6 2.8 2 2.8 3.7.1 3.3-2.8 5.5-6.2 5.5zm1.1-8.6c-2.5 0-4.4 1.5-4.4 3.8 0 1.7 1.3 3.2 3.4 3.2 2.4 0 4.5-1.5 4.5-4 0-1.7-1.4-3-3.5-3zm1.4-8.8c-2.6 0-4.4 1.5-4.4 3.9 0 1.5 1.3 3.4 3.2 3.4 2.4 0 4.5-1.9 4.5-4.3.2-1.7-1-3-3.3-3zM66.4 35l-.9-2.5h-6.4l-.9 2.5h-3.6l5.7-14.9h3.9l5.8 14.9h-3.6zm-4.1-11.7l-2.3 6.4h4.6l-2.3-6.4zm8.8 11.7v-10.7h6.8c2.2 0 3.3 1.3 3.3 2.8 0 1.3-.8 2.2-1.8 2.4 1.2.3 2.1 1.3 2.1 2.6 0 1.6-1.2 2.9-3.3 2.9h-7.1zm7.3-7.5c0-.5-.4-.9-1-.9h-3.4v1.8h3.4c.5 0 1-.4 1-.9zm.1 4.2c0-.5-.4-1-1.1-1h-3.5v2h3.5c.7 0 1.1-.4 1.1-1zm6.9 3.3v-8.2h-3v-2.5h8.9v2.5h-3v8.3l-2.9-.1zm6.3-5.4c0-3 2.2-5.6 5.7-5.6 3.6 0 5.7 2.6 5.7 5.6s-2.2 5.7-5.7 5.7-5.7-2.6-5.7-5.7zm8.4 0c0-1.7-1-3.1-2.8-3.1-1.7 0-2.7 1.5-2.7 3.1 0 1.7 1 3.1 2.7 3.1 1.9.1 2.8-1.4 2.8-3.1zm6.8 4v5.5h-2.8v-14.8h2.8v1.4c.8-1 2-1.6 3.3-1.6 2.8 0 4.8 2.1 4.8 5.6s-2 5.7-4.8 5.7c-1.3-.1-2.5-.7-3.3-1.8zm5.1-4c0-1.8-1.1-3.1-2.7-3.1-.9 0-2 .5-2.4 1.2v3.8c.5.7 1.5 1.2 2.4 1.2 1.6.1 2.7-1.2 2.7-3.1zm3.6 0c0-3.3 2.4-5.6 5.7-5.6 2.2 0 3.5.9 4.3 1.9l-1.8 1.7c-.5-.7-1.3-1.2-2.2-1.2-1.7 0-2.9 1.3-2.9 3.1s1.2 3.1 2.9 3.1c1 0 1.7-.4 2.2-1.2l1.8 1.7c-.7 1-2.1 2-4.3 2-3.3.2-5.7-2.2-5.7-5.5zm18 5.4l-2.9-4.1-1.3 1.4v2.7h-2.8v-10.7h2.8v4.8l4.1-4.8h3.5l-4.3 4.9 4.3 5.8h-3.4zm4.2 0v-10.7h2.8v6.5l4.4-6.5h2.9v10.7h-2.8v-6.7l-4.5 6.7h-2.8zm11.6-5.4c0-3.1 2.3-5.6 5.6-5.6 3.2 0 5.4 2.4 5.4 5.9v.6h-8c.2 1.4 1.3 2.5 3.1 2.5.9 0 2.2-.4 2.9-1.1l1.3 1.8c-1.1 1-2.8 1.5-4.4 1.5-3.4.1-5.9-2.1-5.9-5.6zm5.5-3.4c-1.7 0-2.5 1.3-2.6 2.4h5.3c-.1-1-.8-2.4-2.7-2.4zm15.1 7.4v5.5h-2.8v-14.8h2.8v1.4c.8-1 2-1.6 3.3-1.6 2.8 0 4.8 2.1 4.8 5.6s-2 5.7-4.8 5.7c-1.3-.1-2.5-.7-3.3-1.8zm5.1-4c0-1.8-1.1-3.1-2.7-3.1-.9 0-2 .5-2.4 1.2v3.8c.5.7 1.5 1.2 2.4 1.2 1.6.1 2.7-1.2 2.7-3.1zm3.6 0c0-3.1 2.3-5.6 5.6-5.6 3.2 0 5.4 2.4 5.4 5.9v.6h-8c.2 1.4 1.3 2.5 3.1 2.5.9 0 2.2-.4 2.9-1.1l1.3 1.8c-1.1 1-2.8 1.5-4.4 1.5-3.4.1-5.9-2.1-5.9-5.6zm5.6-3.4c-1.7 0-2.5 1.3-2.6 2.4h5.3c-.1-1-.8-2.4-2.7-2.4zm21.8-1.9v10.7h-15.5v-10.7h2.8v8.3h3.5v-8.3h2.8v8.3h3.5v-8.3h2.9zm1 5.3c0-3.1 2.3-5.6 5.6-5.6 3.2 0 5.4 2.4 5.4 5.9v.6h-8c.2 1.4 1.3 2.5 3.1 2.5.9 0 2.2-.4 2.9-1.1l1.3 1.8c-1.1 1-2.8 1.5-4.4 1.5-3.4.1-5.9-2.1-5.9-5.6zm5.6-3.4c-1.7 0-2.5 1.3-2.6 2.4h5.2c0-1-.8-2.4-2.6-2.4zm6.8 8.8v-10.7h2.8v4h4.5v-4h2.8v10.7h-2.8v-4.3h-4.5v4.3h-2.8zm11.4 0v-10.7h2.8v6.5l4.4-6.5h2.9v10.7h-2.8v-6.7l-4.5 6.7h-2.8zm11.9 0l2.5-3.9c-1.2-.3-2.4-1.4-2.4-3.3s1.3-3.5 3.7-3.5h6.5v10.7h-2.8v-3.7h-2.2l-2.1 3.7h-3.2zm7.5-6v-2.3h-3.2c-.8 0-1.3.5-1.3 1.1 0 .7.5 1.2 1.3 1.2h3.2z"/><path opacity=".44" enable-background="new" d="M41.4 44l-.8-.4 12.6-32.4.9.4-12.7 32.4z"/></g><g fill="#fff"><path d="M.1 81.5v-9.5h4.6c1.7 0 2.7 1.1 2.7 2.4 0 1.2-.8 2-1.6 2.2 1 .2 1.8 1.2 1.8 2.3 0 1.5-1 2.6-2.8 2.6h-4.7zm5.6-6.8c0-.7-.5-1.2-1.3-1.2h-2.6v2.5h2.7c.8-.1 1.2-.6 1.2-1.3zm.2 4c0-.7-.5-1.3-1.4-1.3h-2.7v2.6h2.7c.9 0 1.4-.5 1.4-1.3zM17 81.5l-.7-1.8h-4.3l-.7 1.8h-1.9l3.7-9.5h2.1l3.7 9.5h-1.9zm-2.9-7.8l-1.7 4.5h3.4l-1.7-4.5zM32.5 72v9.5h-11.5v-9.5h1.7v8h3.3v-8h1.7v8h3.3v-8h1.5zM51.8 72v9.5h-11.5v-9.5h1.7v8h3.3v-8h1.7v8h3.3v-8h1.5zM61.5 81.5l-.7-1.8h-4.3l-.7 1.8h-1.9l3.7-9.5h2.1l3.7 9.5h-1.9zm-2.8-7.8l-1.7 4.5h3.4l-1.7-4.5zM72.1 81.5v-4.1h-4.9v4.1h-1.7v-9.5h1.7v3.9h4.9v-3.9h1.7v9.5h-1.7zM76.5 76.7c0-2.9 2.2-4.9 5-4.9 1.9 0 3.1 1 3.8 2.1l-1.4.7c-.5-.8-1.4-1.4-2.4-1.4-1.9 0-3.3 1.4-3.3 3.4s1.4 3.4 3.3 3.4c1 0 1.9-.6 2.4-1.4l1.4.7c-.7 1.1-1.9 2.1-3.8 2.1-2.9.2-5-1.8-5-4.7zM91.7 80.1l.9-1.1c.6.7 1.8 1.1 2.8 1.1 1.3 0 2.2-.6 2.2-1.4 0-.9-.8-1.3-2.3-1.3h-1.9v-1.5h1.9c1.2 0 2.1-.4 2.1-1.2 0-.9-.9-1.3-2.1-1.3-1 0-1.9.4-2.6 1l-.9-1c.7-.9 2-1.5 3.6-1.5 2 0 3.6 1 3.6 2.6 0 1.3-1.1 2-2.1 2.2.9.1 2.2.8 2.2 2.3 0 1.6-1.6 2.8-3.7 2.8-1.6-.2-3-.9-3.7-1.7zM108.6 81.5l-.7-1.8h-4.3l-.7 1.8h-1.9l3.7-9.5h2.1l3.7 9.5h-1.9zm-2.9-7.8l-1.7 4.5h3.4l-1.7-4.5zM112.2 81.5l2.3-3.7c-1.1-.2-2.2-1.1-2.2-2.8 0-1.7 1.2-3 3.1-3h4.2v9.5h-1.7v-3.5h-1.6l-2.1 3.5h-2zm5.6-5v-3h-2.3c-.9 0-1.6.6-1.6 1.5s.7 1.5 1.6 1.5h2.3zM122.6 81.5v-9.5h4.6c1.7 0 2.7 1.1 2.7 2.4 0 1.2-.8 2-1.6 2.2 1 .2 1.8 1.2 1.8 2.3 0 1.5-1 2.6-2.7 2.6h-4.8zm5.6-6.8c0-.7-.5-1.2-1.3-1.2h-2.7v2.5h2.7c.9-.1 1.3-.6 1.3-1.3zm.2 4c0-.7-.5-1.3-1.4-1.3h-2.7v2.6h2.7c.9 0 1.4-.5 1.4-1.3zM132.9 81.5v-9.5h1.7v6.6l4.8-6.6h1.7v9.5h-1.7v-6.7l-4.9 6.7h-1.6zM146.4 81.5v-8h-2.9v-1.5h7.4v1.5h-2.9v8h-1.6zM155.1 72v3.5h2.5c2 0 3.1 1.4 3.1 3s-1.1 3-3.1 3h-4.2v-9.5h1.7zm0 5v3h2.3c.9 0 1.6-.6 1.6-1.5s-.7-1.5-1.6-1.5h-2.3zM176 81.5v-7l-2.9 7h-.7l-2.9-7v7h-1.7v-9.5h2.3l2.6 6.2 2.6-6.2h2.3v9.5h-1.6zM180.8 81.5v-9.5h1.7v6.6l4.8-6.6h1.7v9.5h-1.7v-6.7l-4.9 6.7h-1.6zM192.1 81.5v-9.5h4.2c2 0 3.1 1.4 3.1 3s-1.1 3-3.1 3h-2.5v3.5h-1.7zm5.5-6.5c0-.9-.7-1.5-1.6-1.5h-2.3v3h2.3c1 0 1.6-.6 1.6-1.5zM200.8 81l.6-1.4c.3.3.8.5 1.2.5.8 0 1.1-.3 1.5-1.2l-3.6-6.9h1.9l2.6 5.5 2.6-5.5h1.9l-3.9 7.7c-.6 1.1-1.3 1.9-2.9 1.9-.8 0-1.6-.3-1.9-.6zM216 76.7c0-2.8 2-4.9 4.8-4.9s4.8 2.1 4.8 4.9c0 2.8-2 4.9-4.8 4.9s-4.8-2-4.8-4.9zm8 0c0-2-1.2-3.4-3.1-3.4-1.9 0-3.1 1.5-3.1 3.4s1.2 3.4 3.1 3.4c1.9 0 3.1-1.4 3.1-3.4zM232.7 76.7c0-2.9 2.2-4.9 5-4.9 1.9 0 3.1 1 3.8 2.1l-1.4.7c-.5-.8-1.4-1.4-2.4-1.4-1.9 0-3.3 1.4-3.3 3.4s1.4 3.4 3.3 3.4c1 0 1.9-.6 2.4-1.4l1.4.7c-.7 1.1-1.9 2.1-3.8 2.1-2.8.2-5-1.8-5-4.7zM243.9 81.5v-9.5h6.5v1.5h-4.8v2.5h4.7v1.5h-4.7v2.5h4.8v1.5h-6.5zM259.6 72v1.5h-4.8v2.1h2.5c2 0 3.1 1.4 3.1 3s-1.1 3-3.1 3h-4.2v-9.6h6.5zm-4.8 5v3h2.3c.9 0 1.6-.6 1.6-1.5s-.7-1.5-1.6-1.5h-2.3zM262.8 81.5v-9.5h6.5v1.5h-4.8v2.5h4.7v1.5h-4.7v2.5h4.8v1.5h-6.5z"/></g></svg>