<svg width="270" height="81" viewBox="0 0 270 81" xmlns="http://www.w3.org/2000/svg" xmlns:sketch="http://www.bohemiancoding.com/sketch/ns"><title>Slice 1</title><g sketch:type="MSLayerGroup" fill="none"><path d="M.914.04h269.002v55.803h-269.002v-55.803z" fill="#F35456" sketch:type="MSShapeGroup"/><path d="M18.553 33.553c0-2.529 1.406-8.01 3.42-14.569.281-.983.656-.983 1.968-.983l-1.171 3.654h4.918c.609 0 .469.421.234 1.546h-5.574c-1.406 4.965-2.061 8.291-2.061 9.837 0 1.546.749 2.53 2.389 2.53 1.124 0 2.061-.328 2.717-.703l.093.094-.14.609c-.328 1.265-2.061 1.639-3.42 1.639-1.967.047-3.373-1.171-3.373-3.654" fill="#fff" sketch:type="MSShapeGroup"/><path d="M32.654 37.254c-3.092 0-5.059-2.014-5.059-4.684 0-2.483 1.78-4.123 4.216-4.732-1.64-.796-2.671-2.576-2.671-4.216 0-3.42 2.811-5.294 6.231-5.294 2.717 0 5.059 1.359 5.059 4.357 0 2.577-1.92 4.497-4.263 5.294 1.687.609 2.811 1.967 2.811 3.701-.047 3.466-2.998 5.574-6.324 5.574zm1.077-8.573c-2.482 0-4.356 1.546-4.356 3.842 0 1.686 1.311 3.185 3.419 3.185 2.436 0 4.498-1.546 4.498-4.028-.047-1.64-1.499-2.999-3.561-2.999zm1.406-8.76c-2.577 0-4.357 1.499-4.357 3.888 0 1.546 1.312 3.373 3.232 3.373 2.436 0 4.544-1.873 4.544-4.263.047-1.733-1.171-2.998-3.419-2.998z" fill="#fff" sketch:type="MSShapeGroup"/><path d="M67.32 35.006l-.89-2.53h-6.371l-.937 2.53h-3.607l5.715-14.85h3.935l5.715 14.85h-3.56zm-4.076-11.665l-2.295 6.371h4.637l-2.342-6.371zm8.76 11.665v-10.728h6.793c2.202 0 3.279 1.312 3.279 2.764 0 1.312-.843 2.155-1.827 2.436 1.171.281 2.061 1.312 2.061 2.623 0 1.64-1.171 2.905-3.326 2.905h-6.98zm7.261-7.496c0-.515-.374-.89-.983-.89h-3.42v1.78h3.42c.562 0 .983-.421.983-.89zm.188 4.17c0-.516-.422-.984-1.124-.984h-3.514v2.014h3.514c.702 0 1.124-.375 1.124-1.03zm6.886 3.326v-8.245h-2.998v-2.483h8.854v2.483h-2.998v8.292h-2.858v-.047zm6.277-5.388c0-3.045 2.155-5.621 5.669-5.621 3.56 0 5.668 2.576 5.668 5.621 0 3.045-2.155 5.669-5.668 5.669-3.514 0-5.669-2.577-5.669-5.669zm8.433 0c0-1.686-.984-3.091-2.764-3.091-1.734 0-2.717 1.452-2.717 3.091 0 1.687.983 3.139 2.717 3.139 1.78 0 2.764-1.452 2.764-3.139zm6.745 4.029v5.481h-2.81v-14.85h2.81v1.358c.844-1.03 2.015-1.639 3.326-1.639 2.764 0 4.779 2.061 4.779 5.621 0 3.561-2.015 5.669-4.779 5.669-1.264 0-2.482-.563-3.326-1.64zm5.107-4.029c0-1.827-1.078-3.091-2.717-3.091-.891 0-1.968.515-2.436 1.217v3.795c.468.656 1.499 1.218 2.436 1.218 1.639 0 2.717-1.265 2.717-3.139zm3.654 0c0-3.279 2.389-5.621 5.668-5.621 2.202 0 3.513.937 4.263 1.92l-1.827 1.734c-.515-.75-1.312-1.171-2.249-1.171-1.733 0-2.904 1.264-2.904 3.092 0 1.827 1.218 3.138 2.904 3.138.984 0 1.734-.421 2.249-1.171l1.827 1.733c-.703.984-2.061 1.968-4.263 1.968-3.279.047-5.668-2.296-5.668-5.622zm17.942 5.388l-2.858-4.123-1.312 1.359v2.764h-2.811v-10.728h2.811v4.778l4.076-4.778h3.466l-4.263 4.872 4.357 5.856h-3.467.001zm4.262 0v-10.728h2.811v6.512l4.404-6.512h2.857v10.728h-2.81v-6.746l-4.544 6.746h-2.718zm11.525-5.388c0-3.091 2.295-5.621 5.574-5.621 3.186 0 5.387 2.389 5.387 5.902v.609h-7.963c.187 1.359 1.264 2.483 3.091 2.483.891 0 2.202-.421 2.858-1.077l1.265 1.827c-1.078.983-2.764 1.499-4.404 1.499-3.326.047-5.808-2.155-5.808-5.622zm5.574-3.373c-1.733 0-2.53 1.312-2.623 2.39h5.293c-.093-1.031-.796-2.39-2.67-2.39zm15.038 7.402v5.481h-2.811v-14.85h2.811v1.358c.843-1.03 2.014-1.639 3.326-1.639 2.764 0 4.778 2.061 4.778 5.621 0 3.561-2.014 5.669-4.778 5.669-1.265 0-2.483-.563-3.326-1.64zm5.153-4.029c0-1.827-1.078-3.091-2.717-3.091-.89 0-1.968.515-2.436 1.217v3.795c.468.656 1.499 1.218 2.436 1.218 1.592 0 2.717-1.265 2.717-3.139zm3.607 0c0-3.091 2.295-5.621 5.574-5.621 3.186 0 5.388 2.389 5.388 5.902v.609h-7.964c.187 1.359 1.265 2.483 3.092 2.483.89 0 2.201-.421 2.857-1.077l1.265 1.827c-1.077.983-2.764 1.499-4.403 1.499-3.326.047-5.809-2.155-5.809-5.622zm5.574-3.373c-1.733 0-2.529 1.312-2.623 2.39h5.294c-.094-1.031-.797-2.39-2.671-2.39zm21.831-1.967v10.728h-15.506v-10.728h2.81v8.292h3.514v-8.292h2.811v8.292h3.513v-8.292h2.858zm.983 5.34c0-3.091 2.296-5.621 5.575-5.621 3.186 0 5.387 2.389 5.387 5.902v.609h-7.964c.188 1.359 1.265 2.483 3.092 2.483.89 0 2.202-.421 2.858-1.077l1.265 1.827c-1.078.983-2.764 1.499-4.404 1.499-3.326.047-5.809-2.155-5.809-5.622zm5.575-3.373c-1.733 0-2.53 1.312-2.623 2.39h5.246c-.047-1.031-.796-2.39-2.623-2.39zm6.746 8.761v-10.728h2.811v3.982h4.45v-3.982h2.811v10.728h-2.811v-4.31h-4.45v4.31h-2.811zm11.477 0v-10.728h2.811v6.512l4.403-6.512h2.858v10.728h-2.811v-6.746l-4.544 6.746h-2.717zm11.852 0l2.483-3.889c-1.218-.327-2.389-1.405-2.389-3.326 0-1.874 1.311-3.513 3.7-3.513h6.512v10.728h-2.811v-3.701h-2.155l-2.108 3.701h-3.232zm7.542-6.043v-2.296h-3.232c-.797 0-1.312.468-1.312 1.124 0 .703.469 1.172 1.312 1.172h3.232z" fill="#fff" sketch:type="MSShapeGroup"/><path d="M54.109 11.255l-12.648 32.37.843.375 12.695-32.37-.89-.375" fill="#F66C6E" sketch:type="MSShapeGroup"/><path d="M1.959 80.841v-8.86h3.64c1.487 0 2.444.863 2.444 2.258 0 1.116-.757 1.873-1.554 2.032.943.146 1.726 1.129 1.726 2.179 0 1.474-.956 2.391-2.537 2.391h-3.719zm5.287-6.522c0-.904-.598-1.647-1.74-1.647h-2.79v3.281h2.79c1.142 0 1.74-.718 1.74-1.634zm.172 4.077c0-.903-.624-1.753-1.859-1.753h-2.843v3.507h2.843c1.169 0 1.859-.678 1.859-1.754z" fill="#fff" sketch:type="MSShapeGroup"/><path d="M18.338 80.841l-.877-2.179h-4.689l-.877 2.179h-.876l3.626-8.86h.943l3.626 8.86h-.876zm-3.228-8.05l-2.086 5.18h4.184l-2.098-5.18z" fill="#fff" sketch:type="MSShapeGroup"/><path d="M32.896 71.981v8.86h-10.573v-8.86h.757v8.169h4.144v-8.169h.771v8.169h4.144v-8.169h.757" fill="#fff" sketch:type="MSShapeGroup"/><path d="M52.729 71.981v8.86h-10.574v-8.86h.757v8.169h4.145v-8.169h.77v8.169h4.144v-8.169h.758" fill="#fff" sketch:type="MSShapeGroup"/><path d="M63.156 80.841l-.876-2.179h-4.689l-.877 2.179h-.877l3.627-8.86h.943l3.626 8.86h-.877zm-3.228-8.05l-2.085 5.18h4.184l-2.099-5.18z" fill="#fff" sketch:type="MSShapeGroup"/><path d="M73.518 80.841v-4.211h-5.619v4.211h-.757v-8.86h.757v3.958h5.619v-3.958h.77v8.86h-.77" fill="#fff" sketch:type="MSShapeGroup"/><path d="M77.954 76.417c0-2.723 1.98-4.582 4.49-4.582 1.408 0 2.471.624 3.228 1.567l-.638.412c-.558-.77-1.527-1.289-2.59-1.289-2.085 0-3.693 1.581-3.693 3.892 0 2.285 1.608 3.892 3.693 3.892 1.063 0 2.032-.518 2.59-1.288l.638.398c-.784.97-1.82 1.581-3.228 1.581-2.51 0-4.49-1.86-4.49-4.583" fill="#fff" sketch:type="MSShapeGroup"/><path d="M93.589 79.526l.519-.465c.504.717 1.487 1.248 2.696 1.248 1.474 0 2.391-.717 2.391-1.886 0-1.275-1.063-1.793-2.418-1.793h-1.833v-.691h1.833c1.209 0 2.272-.505 2.272-1.687 0-1.102-1.036-1.713-2.258-1.713-1.076 0-1.86.398-2.551 1.129l-.465-.478c.638-.757 1.701-1.342 3.056-1.342 1.593 0 3.015.837 3.015 2.338 0 1.355-1.143 1.939-1.9 2.072.771.08 2.033.744 2.033 2.205s-1.209 2.537-3.175 2.537c-1.528 0-2.67-.677-3.215-1.474" fill="#fff" sketch:type="MSShapeGroup"/><path d="M110.101 80.841l-.877-2.179h-4.689l-.877 2.179h-.876l3.626-8.86h.943l3.626 8.86h-.876zm-3.228-8.05l-2.085 5.18h4.184l-2.099-5.18z" fill="#fff" sketch:type="MSShapeGroup"/><path d="M113.661 80.841l2.564-3.72c-1.329-.053-2.458-.943-2.458-2.55 0-1.62 1.169-2.59 2.697-2.59h3.307v8.86h-.77v-3.667h-1.94l-2.483 3.667h-.917zm5.34-4.357v-3.812h-2.471c-1.182 0-1.966.783-1.966 1.899s.784 1.913 1.966 1.913h2.471z" fill="#fff" sketch:type="MSShapeGroup"/><path d="M123.783 80.841v-8.86h3.64c1.487 0 2.444.863 2.444 2.258 0 1.116-.757 1.873-1.554 2.032.943.146 1.726 1.129 1.726 2.179 0 1.474-.956 2.391-2.537 2.391h-3.719zm5.287-6.522c0-.904-.598-1.647-1.74-1.647h-2.79v3.281h2.79c1.142 0 1.74-.718 1.74-1.634zm.172 4.077c0-.903-.624-1.753-1.859-1.753h-2.843v3.507h2.843c1.169 0 1.859-.678 1.859-1.754z" fill="#fff" sketch:type="MSShapeGroup"/><path d="M133.746 80.841v-8.86h.757v7.505l5.552-7.505h.771v8.86h-.757v-7.612l-5.579 7.612h-.744" fill="#fff" sketch:type="MSShapeGroup"/><path d="M147.096 80.841v-8.169h-2.895v-.691h6.561v.691h-2.895v8.169h-.771" fill="#fff" sketch:type="MSShapeGroup"/><path d="M154.894 71.981v3.679h2.563c1.687 0 2.67 1.196 2.67 2.59 0 1.395-.969 2.591-2.67 2.591h-3.32v-8.86h.757zm0 4.37v3.799h2.484c1.169 0 1.952-.784 1.952-1.9 0-1.115-.783-1.899-1.952-1.899h-2.484z" fill="#fff" sketch:type="MSShapeGroup"/><path d="M176.293 80.841v-7.824l-3.228 7.824h-.292l-3.241-7.824v7.824h-.757v-8.86h1.129l3.015 7.306 3.002-7.306h1.143v8.86h-.771" fill="#fff" sketch:type="MSShapeGroup"/><path d="M181.076 80.841v-8.86h.757v7.505l5.552-7.505h.77v8.86h-.757v-7.612l-5.579 7.612h-.743" fill="#fff" sketch:type="MSShapeGroup"/><path d="M192.168 80.841v-8.86h3.321c1.7 0 2.669 1.195 2.669 2.59 0 1.395-.983 2.59-2.669 2.59h-2.564v3.68h-.757zm5.193-6.27c0-1.116-.783-1.899-1.952-1.899h-2.484v3.798h2.484c1.169 0 1.952-.783 1.952-1.899z" fill="#fff" sketch:type="MSShapeGroup"/><path d="M200.59 80.216l.411-.571c.306.385.691.664 1.236.664.677 0 .983-.345 1.514-1.328l.306-.571-3.467-6.429h.876l3.029 5.725 3.028-5.725h.877l-3.985 7.359c-.558 1.049-1.076 1.66-2.152 1.66-.704 0-1.315-.292-1.673-.784" fill="#fff" sketch:type="MSShapeGroup"/><path d="M216.423 76.417c0-2.59 1.701-4.582 4.304-4.582 2.59 0 4.304 1.992 4.304 4.582s-1.714 4.583-4.304 4.583c-2.603 0-4.304-1.993-4.304-4.583zm7.811 0c0-2.258-1.382-3.892-3.507-3.892-2.152 0-3.507 1.634-3.507 3.892 0 2.232 1.355 3.892 3.507 3.892 2.125 0 3.507-1.66 3.507-3.892z" fill="#fff" sketch:type="MSShapeGroup"/><path d="M233.626 76.417c0-2.723 1.979-4.582 4.49-4.582 1.408 0 2.47.624 3.227 1.567l-.637.412c-.558-.77-1.528-1.289-2.59-1.289-2.086 0-3.693 1.581-3.693 3.892 0 2.285 1.607 3.892 3.693 3.892 1.062 0 2.032-.518 2.59-1.288l.637.398c-.783.97-1.819 1.581-3.227 1.581-2.511 0-4.49-1.86-4.49-4.583" fill="#fff" sketch:type="MSShapeGroup"/><path d="M244.691 80.841v-8.86h5.619v.691h-4.862v3.281h4.769v.69h-4.769v3.507h4.862v.691h-5.619" fill="#fff" sketch:type="MSShapeGroup"/><path d="M259.516 71.981v.691h-4.769v2.988h2.563c1.687 0 2.67 1.196 2.67 2.59 0 1.395-.969 2.591-2.67 2.591h-3.32v-8.86h5.526zm-4.769 4.37v3.799h2.484c1.169 0 1.952-.784 1.952-1.9 0-1.115-.783-1.899-1.952-1.899h-2.484z" fill="#fff" sketch:type="MSShapeGroup"/><path d="M263.381 80.841v-8.86h5.619v.691h-4.862v3.281h4.769v.69h-4.769v3.507h4.862v.691h-5.619" fill="#fff" sketch:type="MSShapeGroup"/></g></svg>