<?xml version="1.0" encoding="utf-8"?>
<!-- Generator: Adobe Illustrator 18.0.0, SVG Export Plug-In . SVG Version: 6.00 Build 0)  -->
<!DOCTYPE svg PUBLIC "-//W3C//DTD SVG 1.1//EN" "http://www.w3.org/Graphics/SVG/1.1/DTD/svg11.dtd">
<svg version="1.1" id="Layer_1" xmlns="http://www.w3.org/2000/svg" xmlns:xlink="http://www.w3.org/1999/xlink" x="0px" y="0px"
	 viewBox="0 0 235.4 32.7" enable-background="new 0 0 235.4 32.7" xml:space="preserve">
<g>
	<g>
		<path fill="#FFFFFF" d="M0,22.3c0-2.5,1.4-8,3.4-14.6c0.3-1,0.7-1,2-1l-1.2,3.7h4.9c0.6,0,0.5,0.4,0.2,1.5H3.8
			c-1.4,5-2.1,8.3-2.1,9.8c0,1.5,0.7,2.5,2.4,2.5c1.1,0,2.1-0.3,2.7-0.7l0.1,0.1l-0.1,0.6C6.5,25.6,4.7,26,3.4,26
			C1.4,26,0,24.8,0,22.3z"/>
		<path fill="#FFFFFF" d="M14.1,26C11,26,9,24,9,21.3c0-2.5,1.8-4.1,4.2-4.7c-1.6-0.8-2.7-2.6-2.7-4.2c0-3.4,2.8-5.3,6.2-5.3
			c2.7,0,5.1,1.4,5.1,4.4c0,2.6-1.9,4.5-4.3,5.3c1.7,0.6,2.8,2,2.8,3.7C20.4,23.9,17.4,26,14.1,26z M15.2,17.4
			c-2.5,0-4.4,1.5-4.4,3.8c0,1.7,1.3,3.2,3.4,3.2c2.4,0,4.5-1.5,4.5-4C18.7,18.8,17.2,17.4,15.2,17.4L15.2,17.4z M16.6,8.7
			c-2.6,0-4.4,1.5-4.4,3.9c0,1.5,1.3,3.4,3.2,3.4c2.4,0,4.5-1.9,4.5-4.3C20,9.9,18.8,8.7,16.6,8.7L16.6,8.7z"/>
		<path fill="#FFFFFF" d="M48.8,23.8l-0.9-2.5h-6.4l-0.9,2.5H37l5.7-14.9h3.9l5.7,14.9H48.8z M44.7,12.1l-2.3,6.4H47L44.7,12.1z
			 M53.5,23.8V13h6.8c2.2,0,3.3,1.3,3.3,2.8c0,1.3-0.8,2.2-1.8,2.4c1.2,0.3,2.1,1.3,2.1,2.6c0,1.6-1.2,2.9-3.3,2.9H53.5z M60.7,16.3
			c0-0.5-0.4-0.9-1-0.9h-3.4v1.8h3.4C60.3,17.1,60.7,16.7,60.7,16.3L60.7,16.3z M60.9,20.4c0-0.5-0.4-1-1.1-1h-3.5v2h3.5
			C60.5,21.5,60.9,21.1,60.9,20.4z M67.8,23.8v-8.2h-3V13h8.9v2.5h-3v8.3L67.8,23.8L67.8,23.8z M74.1,18.4c0-3,2.2-5.6,5.7-5.6
			c3.6,0,5.7,2.6,5.7,5.6S83.2,24,79.7,24C76.2,24,74.1,21.5,74.1,18.4L74.1,18.4z M82.5,18.4c0-1.7-1-3.1-2.8-3.1
			c-1.7,0-2.7,1.5-2.7,3.1c0,1.7,1,3.1,2.7,3.1C81.5,21.5,82.5,20,82.5,18.4z M89.2,22.4v5.5h-2.8V13h2.8v1.4c0.8-1,2-1.6,3.3-1.6
			c2.8,0,4.8,2.1,4.8,5.6s-2,5.7-4.8,5.7C91.3,24,90.1,23.5,89.2,22.4L89.2,22.4z M94.3,18.4c0-1.8-1.1-3.1-2.7-3.1
			c-0.9,0-2,0.5-2.4,1.2v3.8c0.5,0.7,1.5,1.2,2.4,1.2C93.3,21.5,94.3,20.2,94.3,18.4L94.3,18.4z M98,18.4c0-3.3,2.4-5.6,5.7-5.6
			c2.2,0,3.5,0.9,4.3,1.9l-1.8,1.7c-0.5-0.7-1.3-1.2-2.2-1.2c-1.7,0-2.9,1.3-2.9,3.1s1.2,3.1,2.9,3.1c1,0,1.7-0.4,2.2-1.2l1.8,1.7
			c-0.7,1-2.1,2-4.3,2C100.4,24,98,21.7,98,18.4z M115.9,23.8l-2.9-4.1l-1.3,1.4v2.8H109V13h2.8v4.8l4.1-4.8h3.5l-4.3,4.9l4.4,5.9
			L115.9,23.8L115.9,23.8z M120.2,23.8V13h2.8v6.5l4.4-6.5h2.9v10.7h-2.8V17l-4.5,6.7L120.2,23.8L120.2,23.8z M131.7,18.4
			c0-3.1,2.3-5.6,5.6-5.6c3.2,0,5.4,2.4,5.4,5.9v0.6h-8c0.2,1.4,1.3,2.5,3.1,2.5c0.9,0,2.2-0.4,2.9-1.1l1.3,1.8
			c-1.1,1-2.8,1.5-4.4,1.5C134.2,24,131.7,21.8,131.7,18.4L131.7,18.4z M137.3,15c-1.7,0-2.5,1.3-2.6,2.4h5.3
			C139.9,16.3,139.2,15,137.3,15L137.3,15z M152.3,22.4v5.5h-2.8V13h2.8v1.4c0.8-1,2-1.6,3.3-1.6c2.8,0,4.8,2.1,4.8,5.6
			s-2,5.7-4.8,5.7C154.4,24,153.2,23.5,152.3,22.4L152.3,22.4z M157.5,18.4c0-1.8-1.1-3.1-2.7-3.1c-0.9,0-2,0.5-2.4,1.2v3.8
			c0.5,0.7,1.5,1.2,2.4,1.2C156.4,21.5,157.5,20.2,157.5,18.4L157.5,18.4z M161.1,18.4c0-3.1,2.3-5.6,5.6-5.6c3.2,0,5.4,2.4,5.4,5.9
			v0.6h-8c0.2,1.4,1.3,2.5,3.1,2.5c0.9,0,2.2-0.4,2.9-1.1l1.3,1.8c-1.1,1-2.8,1.5-4.4,1.5C163.6,24,161.1,21.8,161.1,18.4
			L161.1,18.4z M166.7,15c-1.7,0-2.5,1.3-2.6,2.4h5.3C169.3,16.3,168.6,15,166.7,15L166.7,15z M188.5,13v10.7H173V13h2.8v8.3h3.5V13
			h2.8v8.3h3.5V13H188.5z M189.5,18.4c0-3.1,2.3-5.6,5.6-5.6c3.2,0,5.4,2.4,5.4,5.9v0.6h-8c0.2,1.4,1.3,2.5,3.1,2.5
			c0.9,0,2.2-0.4,2.9-1.1l1.3,1.8c-1.1,1-2.8,1.5-4.4,1.5C192,24,189.5,21.8,189.5,18.4L189.5,18.4z M195.1,15
			c-1.7,0-2.5,1.3-2.6,2.4h5.2C197.6,16.3,196.9,15,195.1,15z M201.8,23.8V13h2.8v4h4.5v-4h2.8v10.7h-2.8v-4.3h-4.5v4.3L201.8,23.8
			L201.8,23.8z M213.3,23.8V13h2.8v6.5l4.4-6.5h2.9v10.7h-2.8V17l-4.5,6.7L213.3,23.8L213.3,23.8z M225.1,23.8l2.5-3.9
			c-1.2-0.3-2.4-1.4-2.4-3.3c0-1.9,1.3-3.5,3.7-3.5h6.5v10.7h-2.8V20h-2.2l-2.1,3.7L225.1,23.8L225.1,23.8z M232.7,17.7v-2.3h-3.2
			c-0.8,0-1.3,0.5-1.3,1.1c0,0.7,0.5,1.2,1.3,1.2H232.7z"/>
		<path opacity="0.14" fill="#FFFFFF" enable-background="new    " d="M23.8,32.7l-0.8-0.4L35.6,0l0.9,0.4L23.8,32.7z"/>
	</g>
</g>
</svg>
