<svg xmlns="http://www.w3.org/2000/svg" viewBox="0 844.7 1024 310.2" enable-background="new 0 844.7 1024 310.2"><title>Slice 1</title><path fill="#F35456" d="M0 844.7h1024v212.4h-1024v-212.4z"/><g fill="#fff"><path d="M42 972.6c0-9.5 5.3-30.5 12.9-55.6 1.1-3.8 2.7-3.8 7.6-3.8l-4.5 14.1h18.7c2.3 0 1.9 1.5.8 5.7h-21.4c-5.3 19-8 31.6-8 37.3 0 5.7 2.7 9.5 9.1 9.5 4.2 0 8-1.1 10.3-2.7l.4.4-.4 2.3c-1.1 4.9-8 6.1-12.9 6.1-7.3.8-12.6-4.2-12.6-13.3zm53.7 14.1c-11.8 0-19.4-7.6-19.4-17.9 0-9.5 6.9-15.6 16-17.9-6.1-3-10.3-9.9-10.3-16 0-12.9 10.7-20.2 23.6-20.2 10.3 0 19.4 5.3 19.4 16.7 0 9.9-7.2 17.1-16.4 20.2 6.5 2.3 10.7 7.6 10.7 14.1.4 12.6-10.7 21-23.6 21zm4.2-32.8c-9.5 0-16.7 5.7-16.7 14.5 0 6.5 4.9 12.2 12.9 12.2 9.1 0 17.1-5.7 17.1-15.2 0-6.5-5.3-11.5-13.3-11.5zm5.3-33.5c-9.9 0-16.7 5.7-16.7 14.8 0 5.7 4.9 12.9 12.2 12.9 9.1 0 17.1-7.2 17.1-16.4.7-6.3-3.9-11.3-12.6-11.3zm122.6 57.5l-3.4-9.5h-24.4l-3.4 9.5h-13.7l21.7-56.7h14.8l22.1 56.7h-13.7zm-15.6-44.5l-8.8 24.4h17.5l-8.7-24.4zm33.5 44.5v-40.7h25.9c8.4 0 12.6 4.9 12.6 10.7 0 4.9-3 8.4-6.9 9.1 4.6 1.1 8 4.9 8 9.9 0 6.1-4.6 11-12.6 11h-27zm27.7-28.5c0-1.9-1.5-3.4-3.8-3.4h-12.9v6.9h12.9c1.9-.1 3.8-1.6 3.8-3.5zm.4 16c0-1.9-1.5-3.8-4.2-3.8h-13.3v7.6h13.3c2.7 0 4.2-1.6 4.2-3.8zm26.3 12.5v-31.2h-11.4v-9.5h33.9v9.5h-11.4v31.6l-11.1-.4zm24-20.5c0-11.4 8.4-21.3 21.7-21.3 13.7 0 21.7 9.9 21.7 21.3s-8.4 21.7-21.7 21.7c-13.4 0-21.7-9.9-21.7-21.7zm31.9 0c0-6.5-3.8-11.8-10.7-11.8-6.5 0-10.3 5.7-10.3 11.8 0 6.5 3.8 11.8 10.3 11.8 7.3.3 10.7-5.4 10.7-11.8zm25.9 15.2v20.9h-10.7v-56.3h10.7v5.3c3-3.8 7.6-6.1 12.6-6.1 10.7 0 18.3 8 18.3 21.3s-7.6 21.7-18.3 21.7c-5-.3-9.5-2.6-12.6-6.8zm19.4-15.2c0-6.9-4.2-11.8-10.3-11.8-3.4 0-7.6 1.9-9.1 4.6v14.5c1.9 2.7 5.7 4.6 9.1 4.6 6.2.2 10.3-4.7 10.3-11.9zm13.8 0c0-12.6 9.1-21.3 21.7-21.3 8.4 0 13.3 3.4 16.4 7.2l-6.9 6.5c-1.9-2.7-4.9-4.6-8.4-4.6-6.5 0-11 4.9-11 11.8s4.6 11.8 11 11.8c3.8 0 6.5-1.5 8.4-4.6l6.9 6.5c-2.7 3.8-8 7.6-16.4 7.6-12.6.8-21.7-8.4-21.7-20.9zm68.5 20.5l-11-15.6-4.9 5.3v10.3h-10.7v-40.7h10.7v18.3l15.6-18.3h13.3l-16.4 18.7 16.4 22.1h-13v-.1zm16 0v-40.7h10.7v24.7l16.7-24.7h11v40.7h-10.7v-25.5l-17.1 25.5h-10.6zm44.1-20.5c0-11.8 8.8-21.3 21.3-21.3 12.2 0 20.6 9.1 20.6 22.5v2.3h-30.5c.8 5.3 4.9 9.5 11.8 9.5 3.4 0 8.4-1.5 11-4.2l4.9 6.9c-4.2 3.8-10.7 5.7-16.7 5.7-12.9.3-22.4-8.1-22.4-21.4zm21-13c-6.5 0-9.5 4.9-9.9 9.1h20.2c-.4-3.7-3.1-9.1-10.3-9.1zm57.4 28.2v20.9h-10.7v-56.3h10.7v5.3c3-3.8 7.6-6.1 12.6-6.1 10.7 0 18.3 8 18.3 21.3s-7.6 21.7-18.3 21.7c-4.9-.3-9.5-2.6-12.6-6.8zm19.5-15.2c0-6.9-4.2-11.8-10.3-11.8-3.4 0-7.6 1.9-9.1 4.6v14.5c1.9 2.7 5.7 4.6 9.1 4.6 6.1.2 10.3-4.7 10.3-11.9zm13.7 0c0-11.8 8.8-21.3 21.3-21.3 12.2 0 20.6 9.1 20.6 22.5v2.3h-30.5c.8 5.3 4.9 9.5 11.8 9.5 3.4 0 8.4-1.5 11-4.2l4.9 6.9c-4.2 3.8-10.7 5.7-16.7 5.7-12.9.3-22.4-8.1-22.4-21.4zm21.3-13c-6.5 0-9.5 4.9-9.9 9.1h20.2c-.4-3.7-3.1-9.1-10.3-9.1zm83-7.2v40.7h-59v-40.7h10.7v31.6h13.3v-31.6h10.7v31.6h13.3v-31.6h11zm3.8 20.2c0-11.8 8.8-21.3 21.3-21.3 12.2 0 20.6 9.1 20.6 22.5v2.3h-30.5c.8 5.3 4.9 9.5 11.8 9.5 3.4 0 8.4-1.5 11-4.2l4.9 6.9c-4.2 3.8-10.7 5.7-16.7 5.7-12.9.3-22.4-8.1-22.4-21.4zm21.3-13c-6.5 0-9.5 4.9-9.9 9.1h19.8c0-3.7-3.1-9.1-9.9-9.1zm25.9 33.5v-40.7h10.7v15.2h17.1v-15.2h10.6v40.7h-10.7v-16.4h-17.1v16.4h-10.6zm43.4 0v-40.7h10.7v24.7l16.7-24.7h11v40.7h-10.7v-25.5l-17.1 25.5h-10.6zm45.3 0l9.5-14.8c-4.6-1.1-9.1-5.3-9.1-12.6s4.9-13.3 14.1-13.3h24.7v40.7h-10.7v-14.1h-8.4l-8 14.1h-12.1zm28.5-22.8v-8.8h-12.2c-3 0-4.9 1.9-4.9 4.2 0 2.7 1.9 4.6 4.9 4.6h12.2z"/><path opacity=".44" enable-background="new" d="M132.6 1012.2l-3-1.5 48-123.3 3.4 1.5-48.4 123.3z"/></g><path fill="#fff" d="M.4 1154.9v-36.2h17.5c6.5 0 10.3 4.2 10.3 9.1 0 4.6-3 7.6-6.1 8.4 3.8.8 6.9 4.6 6.9 8.8 0 5.7-3.8 9.9-10.7 9.9h-17.9zm21.3-25.9c0-2.7-1.9-4.6-4.9-4.6h-9.9v9.5h10.3c3-.3 4.5-2.2 4.5-4.9zm.8 15.3c0-2.7-1.9-4.9-5.3-4.9h-10.3v9.9h10.3c3.4-.1 5.3-2 5.3-5zm42.2 10.6l-2.7-6.9h-16.3l-2.7 6.9h-7.2l14.1-36.2h8l14.1 36.2h-7.3zm-11-29.7l-6.5 17.1h12.9c0 .1-6.4-17.1-6.4-17.1zm70-6.4v36.2h-43.8v-36.2h6.5v30.5h12.6v-30.5h6.5v30.5h12.5v-30.5h5.7zm73.5 0v36.2h-43.8v-36.2h6.5v30.5h12.6v-30.5h6.5v30.5h12.6v-30.5h5.6zm36.9 36.1l-2.7-6.9h-16.4l-2.7 6.9h-7.2l14.1-36.2h8l14.1 36.2h-7.2zm-10.6-29.7l-6.5 17.1h12.9l-6.4-17.1zm51 29.7v-15.6h-18.7v15.6h-6.5v-36.2h6.5v14.8h18.7v-14.8h6.5v36.2h-6.5zm16.7-18.2c0-11 8.4-18.7 19-18.7 7.2 0 11.8 3.8 14.5 8l-5.3 2.7c-1.9-3-5.3-5.3-9.1-5.3-7.2 0-12.6 5.3-12.6 12.9s5.3 12.9 12.6 12.9c3.8 0 7.2-2.3 9.1-5.3l5.3 2.7c-2.7 4.2-7.2 8-14.5 8-11 .7-19-6.9-19-17.9zm57.9 12.9l3.4-4.2c2.3 2.7 6.9 4.2 10.7 4.2 4.9 0 8.4-2.3 8.4-5.3 0-3.4-3-4.9-8.8-4.9h-7.2v-5.7h7.2c4.6 0 8-1.5 8-4.6 0-3.4-3.4-4.9-8-4.9-3.8 0-7.2 1.5-9.9 3.8l-3.4-3.8c2.7-3.4 7.6-5.7 13.7-5.7 7.6 0 13.7 3.8 13.7 9.9 0 4.9-4.2 7.6-8 8.4 3.4.4 8.4 3 8.4 8.8 0 6.1-6.1 10.7-14.1 10.7-6.1-1-11.5-3.7-14.1-6.7zm64.3 5.3l-2.7-6.9h-16.4l-2.7 6.9h-7.2l14.1-36.2h8l14.1 36.2h-7.2zm-11-29.7l-6.5 17.1h12.9l-6.4-17.1zm24.7 29.7l8.8-14.1c-4.2-.8-8.4-4.2-8.4-10.7 0-6.5 4.6-11.4 11.8-11.4h16v36.2h-6.5v-13.3h-6.1l-8 13.3h-7.6zm21.3-19v-11.4h-8.8c-3.4 0-6.1 2.3-6.1 5.7s2.7 5.7 6.1 5.7h8.8zm18.3 19v-36.2h17.5c6.5 0 10.3 4.2 10.3 9.1 0 4.6-3 7.6-6.1 8.4 3.8.8 6.9 4.6 6.9 8.8 0 5.7-3.8 9.9-10.3 9.9h-18.3zm21.3-25.9c0-2.7-1.9-4.6-4.9-4.6h-10.3v9.5h10.3c3.4-.3 4.9-2.2 4.9-4.9zm.8 15.3c0-2.7-1.9-4.9-5.3-4.9h-10.3v9.9h10.3c3.4-.1 5.3-2 5.3-5zm17.1 10.6v-36.2h6.5v25.1l18.3-25.1h6.5v36.2h-6.5v-25.5l-18.7 25.5h-6.1zm51.4 0v-30.5h-11v-5.7h28.2v5.7h-11v30.5h-6.2zm33.1-36.1v13.3h9.5c7.6 0 11.8 5.3 11.8 11.4s-4.2 11.4-11.8 11.4h-16v-36.2h6.5zm0 19v11.4h8.8c3.4 0 6.1-2.3 6.1-5.7s-2.7-5.7-6.1-5.7h-8.8zm79.6 17.1v-26.6l-11 26.6h-2.7l-11-26.6v26.6h-6.5v-36.2h8.8l9.9 23.6 9.9-23.6h8.8v36.2h-6.2zm18.2 0v-36.2h6.5v25.1l18.3-25.1h6.5v36.2h-6.5v-25.5l-18.7 25.5h-6.1zm43.1 0v-36.2h16c7.6 0 11.8 5.3 11.8 11.4s-4.2 11.4-11.8 11.4h-9.5v13.3h-6.5zm20.9-24.7c0-3.4-2.7-5.7-6.1-5.7h-8.8v11.4h8.8c3.8 0 6.1-2.3 6.1-5.7zm12.2 22.8l2.3-5.3c1.1 1.1 3 1.9 4.6 1.9 3 0 4.2-1.1 5.7-4.6l-13.7-26.3h7.2l9.9 20.9 9.9-20.9h7.2l-14.8 29.3c-2.3 4.2-4.9 7.2-11 7.2-3.1.1-6.2-1-7.3-2.2zm57.8-16.3c0-10.7 7.6-18.7 18.3-18.7s18.3 8 18.3 18.7-7.6 18.7-18.3 18.7-18.3-7.7-18.3-18.7zm30.5 0c0-7.6-4.6-12.9-11.8-12.9s-11.8 5.7-11.8 12.9 4.6 12.9 11.8 12.9c7.2 0 11.8-5.3 11.8-12.9zm33.1 0c0-11 8.4-18.7 19-18.7 7.2 0 11.8 3.8 14.5 8l-5.3 2.7c-1.9-3-5.3-5.3-9.1-5.3-7.2 0-12.6 5.3-12.6 12.9s5.3 12.9 12.6 12.9c3.8 0 7.2-2.3 9.1-5.3l5.3 2.7c-2.7 4.2-7.2 8-14.5 8-10.6.7-19-6.9-19-17.9zm42.7 18.2v-36.2h24.7v5.7h-18.3v9.5h17.9v5.7h-17.9v9.5h18.3v5.7h-24.7zm59.7-36.1v5.7h-18.3v8h9.5c7.6 0 11.8 5.3 11.8 11.4s-4.2 11.4-11.8 11.4h-16v-36.5h24.8zm-18.3 19v11.4h8.8c3.4 0 6.1-2.3 6.1-5.7s-2.7-5.7-6.1-5.7h-8.8zm30.5 17.1v-36.2h24.7v5.7h-18.3v9.5h17.9v5.7h-17.9v9.5h18.3v5.7h-24.7zM981.8 907.1c0 9.6-7.4 17.4-16.9 17.4-9.5 0-17-7.7-17-17.4 0-9.5 7.5-17.3 17-17.3s16.9 7.8 16.9 17.3zm-31.1.2c0 8.4 6.2 14.9 14.2 14.9 7.9 0 14.1-6.6 14.1-15.1 0-8.4-6.2-15-14.1-15-8 0-14.2 6.6-14.2 15.2zm20-5.6c-.6-.3-2.4-1.1-4.6-1.1-4.5 0-6.7 2.9-6.7 6.7 0 3.7 2.3 6.8 6.8 6.8 1.9 0 3.7-.5 4.8-1.2l.6 1.8c-1.7 1.1-3.9 1.5-5.9 1.5-5.6 0-8.8-3.8-8.8-8.7 0-5.5 4.3-8.9 9.2-8.9 2.5 0 4.6.7 5.3 1.3l-.7 1.8z"/></svg>