<svg width="571" height="74" viewBox="0 0 571 74" xmlns="http://www.w3.org/2000/svg" xmlns:sketch="http://www.bohemiancoding.com/sketch/ns"><title>t8avtor-logo-black</title><g sketch:type="MSArtboardGroup" fill="none"><path d="M571 9.971c0 5.533-4.366 10.029-9.971 10.029-5.604 0-10.029-4.438-10.029-10.029 0-5.476 4.425-9.971 10.029-9.971 5.605 0 9.971 4.495 9.971 9.971zm-18-.387c0 4.744 3.724 8.415 8.529 8.415 4.746 0 8.471-3.728 8.471-8.528 0-4.744-3.724-8.472-8.471-8.472-4.805 0-8.529 3.728-8.529 8.585zm11.449-2.823c-.368-.171-1.469-.626-2.816-.626-2.755 0-4.102 1.648-4.102 3.807 0 2.102 1.408 3.864 4.163 3.864 1.164 0 2.266-.283 2.94-.681l.367 1.022c-1.041.626-2.388.852-3.612.852-3.429 0-5.388-2.159-5.388-4.943 0-3.126 2.633-5.057 5.633-5.057 1.53 0 2.816.398 3.245.738l-.429 1.023z" fill="#fff" sketch:type="MSShapeGroup"/><path d="M70 39.5c0 19.132-15.75 34.5-34.999 34.5-19.25 0-35.001-15.524-35.001-34.5s15.751-34.5 35.001-34.5 34.999 15.368 34.999 34.5" fill="#000" sketch:type="MSShapeGroup"/><path d="M15 50.252c0-4.709 2.574-14.597 6.435-26.526.482-1.726 1.286-1.726 3.699-1.726l-2.091 6.591h9.171c1.126 0 .805.785.482 2.825h-10.457c-2.574 9.104-3.86 15.225-3.86 17.893 0 2.825 1.448 4.709 4.505 4.709 2.091 0 3.86-.628 5.148-1.256l.16.156-.16 1.1c-.643 2.354-3.861 2.981-6.435 2.981-3.861 0-6.596-2.196-6.596-6.748" fill="#fff" sketch:type="MSShapeGroup"/><path d="M41.503 58c-5.798 0-9.503-3.658-9.503-8.59 0-4.614 3.383-7.637 7.892-8.75-3.06-1.432-4.993-4.773-4.993-7.796 0-6.364 5.316-9.864 11.597-9.864 5.154 0 9.504 2.546 9.504 7.955 0 4.773-3.544 8.273-8.054 9.705 3.222 1.114 5.316 3.659 5.316 6.841 0 6.682-5.476 10.499-11.759 10.499zm1.723-16c-4.678 0-8.226 2.854-8.226 7.134 0 3.171 2.419 5.866 6.452 5.866 4.677 0 8.548-2.854 8.548-7.451-.162-3.012-2.903-5.549-6.774-5.549zm3.176-16c-4.942 0-8.402 2.786-8.402 6.964 0 2.786 2.472 6.036 6.26 6.036 4.778 0 8.732-3.405 8.732-7.583.164-2.94-2.142-5.417-6.59-5.417z" fill="#fff" sketch:type="MSShapeGroup"/><path d="M118.818 54l-2.031-5.696h-14.573l-2.031 5.696h-8.182l12.961-34h8.839l13.2 34h-8.182zm-9.286-27l-5.532 15h11l-5.468-15zm20.468 27v-24h15.697c5.09 0 7.637 2.889 7.637 6.31 0 2.889-1.819 4.953-4.182 5.366 2.788.648 4.849 2.889 4.849 5.837 0 3.598-2.788 6.487-7.637 6.487h-16.363zm16-17.029c0-1.102-.898-1.971-2.276-1.971h-7.724v4h7.724c1.138-.058 2.276-.928 2.276-2.029zm1 9.529c0-1.25-.943-2.5-2.64-2.5h-8.36v5h8.36c1.698 0 2.64-1.053 2.64-2.5zm15.726 7.266v-18.218h-6.726v-5.548h20v5.548h-6.726v18.452l-6.549-.234zm14.274-11.887c0-6.893 5.032-12.879 13-12.879 8.207 0 13 5.986 13 12.879 0 6.892-5.033 13.121-13 13.121-8.028 0-13-5.986-13-13.121zm20 .118c0-3.855-2.352-6.997-6.624-6.997-4.024 0-6.376 3.38-6.376 6.997 0 3.854 2.353 6.996 6.376 6.996 4.52.178 6.624-3.202 6.624-6.996zm14.43 8.558v12.445h-6.43v-33.523h6.43v3.156c1.802-2.263 4.567-3.633 7.572-3.633 6.43 0 10.998 4.764 10.998 12.684 0 7.919-4.568 12.921-10.998 12.921-3.005-.179-5.708-1.548-7.572-4.05zm12.57-8.586c0-4.075-2.597-6.969-6.371-6.969-2.103 0-4.701 1.122-5.629 2.717v8.562c1.175 1.595 3.526 2.717 5.629 2.717 3.836.118 6.371-2.776 6.371-7.028v.001zm8-.364c0-7.457 5.494-12.605 13.1-12.605 5.071 0 8.03 2.013 9.9 4.26l-4.165 3.847c-1.147-1.598-2.958-2.723-5.071-2.723-3.924 0-6.64 2.9-6.64 6.983s2.776 6.982 6.64 6.982c2.294 0 3.925-.887 5.071-2.722l4.165 3.846c-1.629 2.249-4.829 4.497-9.9 4.497-7.606.474-13.1-4.97-13.1-12.367zm41.122 12.336l-6.667-9.176-2.97 3.118v6.059h-6.485v-23.941h6.485v10.764l9.455-10.764h8.06l-9.939 11 9.939 13h-7.878v-.059zm9.878.059v-24h6.409v14.565l10.003-14.565h6.589v24h-6.409v-15.037l-10.242 15.037h-6.349zm26-12.531c0-6.908 5.25-12.469 12.709-12.469 7.279 0 12.291 5.327 12.291 13.172v1.346h-18.198c.477 3.103 2.923 5.561 7.041 5.561 2.028 0 5.011-.878 6.564-2.458l2.924 4.039c-2.506 2.225-6.385 3.336-9.966 3.336-7.697.177-13.365-4.741-13.365-12.526zm12.882-7.469c-3.862 0-5.644 2.692-5.882 5h12c-.238-2.033-1.841-5-6.118-5zm34.548 16.555v12.445h-6.43v-33.523h6.43v3.156c1.803-2.263 4.567-3.633 7.572-3.633 6.431 0 10.998 4.764 10.998 12.684 0 7.919-4.567 12.921-10.998 12.921-2.944-.179-5.708-1.548-7.572-4.05zm12.57-8.586c0-4.075-2.598-6.969-6.371-6.969-2.103 0-4.7 1.122-5.629 2.717v8.562c1.176 1.595 3.526 2.717 5.629 2.717 3.773.118 6.371-2.776 6.371-7.028v.001zm7-.5c0-6.908 5.251-12.469 12.709-12.469 7.28 0 12.291 5.327 12.291 13.172v1.346h-18.198c.478 3.103 2.924 5.561 7.04 5.561 2.029 0 5.012-.878 6.563-2.458l2.924 4.039c-2.506 2.225-6.384 3.336-9.964 3.336-7.697.177-13.365-4.741-13.365-12.526zm12.881-7.469c-3.861 0-5.644 2.692-5.881 5h12c-.237-2.033-1.842-5-6.119-5zm51.119-4v24h-36v-24h6.529v18.634h8.115v-18.634h6.529v18.634h8.115v-18.634h6.712zm2 11.469c0-6.908 5.251-12.469 12.709-12.469 7.279 0 12.291 5.327 12.291 13.172v1.346h-18.198c.477 3.103 2.924 5.561 7.04 5.561 2.029 0 5.012-.878 6.563-2.458l2.924 4.039c-2.506 2.225-6.384 3.336-9.964 3.336-7.697.177-13.365-4.741-13.365-12.526zm12-7.469c-3.939 0-5.758 2.692-6 5h12c0-2.033-1.879-5-6-5zm16 20v-24h6.409v8.963h10.242v-8.963h6.349v24h-6.41v-9.67h-10.242v9.67h-6.348zm26 0v-24h6.409v14.565l10.003-14.565h6.589v24h-6.409v-15.037l-10.243 15.037h-6.348zm27 0l5.817-8.728c-2.816-.648-5.572-3.125-5.572-7.429 0-4.305 3-7.843 8.632-7.843h15.123v24h-6.551v-8.315h-5.143l-4.898 8.315h-7.408zm17-14v-5h-7.134c-1.755 0-2.866 1.08-2.866 2.387 0 1.534 1.111 2.613 2.866 2.613h7.134z" fill="#000" sketch:type="MSShapeGroup"/></g></svg>