<svg width="572" height="134" viewBox="0 0 572 134" xmlns="http://www.w3.org/2000/svg" xmlns:sketch="http://www.bohemiancoding.com/sketch/ns"><title>t8avtor-logo-complete</title><g sketch:type="MSArtboardGroup" fill="none"><path d="M92 133v-16h7.954c2.955 0 4.682 1.856 4.682 4.022 0 2.033-1.363 3.359-2.772 3.712 1.728.353 3.137 2.033 3.137 3.89 0 2.519-1.728 4.376-4.864 4.376h-8.136zm10-11.063c0-1.137-.899-1.937-2.318-1.937h-4.682v4h4.871c1.419-.126 2.129-.926 2.129-2.063zm0 6.043c0-1.091-.853-1.98-2.379-1.98h-4.621v4h4.621c1.526-.041 2.379-.808 2.379-2.02zm18.773 5.02l-1.193-3.05h-7.204l-1.193 3.05h-3.182l6.232-16h3.536l6.232 16h-3.227zm-4.75-13l-3.023 8h6c0 .046-2.977-8-2.977-8zm29.977-3v16h-19v-16h2.82v13.481h5.466v-13.481h2.819v13.481h5.423v-13.481h2.473zm33 0v16h-19v-16h2.82v13.481h5.466v-13.481h2.82v13.481h5.466v-13.481h2.429zm16.818 16l-1.193-3.05h-7.249l-1.193 3.05h-3.182l6.232-16h3.536l6.232 16h-3.182zm-4.794-13l-3.023 8h6l-2.977-8zm23.106 13v-6.895h-8.259v6.895h-2.87v-16h2.87v6.541h8.259v-6.541h2.871v16h-2.871zm6.871-7.835c0-4.803 3.761-8.165 8.508-8.165 3.224 0 5.283 1.659 6.492 3.493l-2.374 1.179c-.85-1.309-2.373-2.314-4.074-2.314-3.224 0-5.641 2.314-5.641 5.633 0 3.318 2.374 5.632 5.641 5.632 1.702 0 3.224-1.004 4.074-2.314l2.374 1.179c-1.209 1.834-3.224 3.493-6.492 3.493-4.925.306-8.508-3.012-8.508-7.815zm26 5.821l1.568-1.888c1.06 1.214 3.18 1.888 4.932 1.888 2.259 0 3.873-1.034 3.873-2.383 0-1.529-1.383-2.203-4.057-2.203h-3.319v-2.564h3.319c2.121 0 3.688-.675 3.688-2.069 0-1.529-1.567-2.203-3.688-2.203-1.752 0-3.319.675-4.564 1.709l-1.568-1.709c1.245-1.529 3.503-2.563 6.316-2.563 3.503 0 6.316 1.709 6.316 4.452 0 2.203-1.936 3.418-3.688 3.778 1.567.18 3.872 1.35 3.872 3.958 0 2.743-2.812 4.812-6.5 4.812-2.812-.45-5.301-1.664-6.5-3.013v-.001zm28.818 2.014l-1.193-3.05h-7.249l-1.193 3.05h-3.182l6.232-16h3.536l6.232 16h-3.182zm-4.794-13l-3.023 8h6l-2.977-8zm10.977 13l4.056-6.232c-1.936-.353-3.872-1.857-3.872-4.729 0-2.873 2.121-5.039 5.44-5.039h7.376v16h-2.997v-5.879h-2.812l-3.688 5.879h-3.503zm10-8v-5h-4.135c-1.597 0-2.865 1.009-2.865 2.5 0 1.492 1.268 2.5 2.865 2.5h4.135zm8 8v-16h7.954c2.955 0 4.682 1.856 4.682 4.022 0 2.033-1.363 3.359-2.772 3.712 1.727.353 3.137 2.033 3.137 3.89 0 2.519-1.728 4.376-4.682 4.376h-8.318zm9-11.063c0-1.137-.875-1.937-2.256-1.937h-4.744v4h4.744c1.565-.126 2.256-.926 2.256-2.063zm0 6.043c0-1.091-.853-1.98-2.379-1.98h-4.621v4h4.621c1.526-.041 2.379-.808 2.379-2.02zm8 5.02v-16h2.907v11.093l8.186-11.093h2.907v16h-2.907v-11.271l-8.365 11.271h-2.728zm23.071 0v-13.481h-5.071v-2.519h13v2.519h-5.07v13.481h-2.859zm14.735-15.956v5.879h4.101c3.28 0 5.093 2.342 5.093 5.039 0 2.697-1.813 5.039-5.093 5.039h-6.907v-16h2.806v.044zm.194 8.956v5h4.134c1.598 0 2.866-1.008 2.866-2.5s-1.268-2.5-2.866-2.5h-4.134zm35.182 7v-11.757l-5 11.757h-1.227l-5-11.757v11.757h-2.955v-16h4l4.5 10.431 4.5-10.431h4v16h-2.818zm7.818 0v-16h2.907v11.093l8.186-11.093h2.908v16h-2.908v-11.271l-8.364 11.271h-2.728zm19 0v-16h6.907c3.28 0 5.093 2.342 5.093 5.039 0 2.696-1.813 5.039-5.093 5.039h-4.101v5.878h-2.805v.045zm10-10.5c0-1.491-1.268-2.5-2.865-2.5h-4.135v5h4.135c1.785 0 2.865-1.009 2.865-2.5zm4.483 9.534l1.009-2.323c.483.482 1.316.833 2.018.833 1.315 0 1.842-.482 2.499-2.016l-6.009-11.527h3.158l4.342 9.16 4.342-9.16h3.158l-6.491 12.842c-1.009 1.841-2.149 3.156-4.824 3.156-1.36.044-2.719-.438-3.202-.964zm26.517-6.533c0-4.864 3.323-8.5 8-8.5s8 3.636 8 8.5c0 4.863-3.323 8.5-8 8.5s-8-3.499-8-8.5zm14 0c0-3.241-2.144-5.5-5.5-5.5s-5.5 2.43-5.5 5.5c0 3.069 2.144 5.5 5.5 5.5s5.5-2.26 5.5-5.5zm14-.335c0-4.803 3.761-8.165 8.508-8.165 3.224 0 5.283 1.659 6.492 3.493l-2.374 1.179c-.851-1.309-2.373-2.314-4.074-2.314-3.224 0-5.641 2.314-5.641 5.633 0 3.318 2.374 5.632 5.641 5.632 1.702 0 3.224-1.004 4.074-2.314l2.374 1.179c-1.209 1.834-3.224 3.493-6.492 3.493-4.746.306-8.508-3.012-8.508-7.815zm19 7.835v-16h11v2.519h-8.149v4.199h7.971v2.52h-7.971v4.199h8.149v2.519h-11v.045zm26.705-16v2.499h-7.899v3.507h4.101c3.28 0 5.093 2.323 5.093 4.997s-1.813 4.997-5.093 4.997h-6.907v-16h10.705zm-8.705 9v5h4.134c1.598 0 2.866-1.008 2.866-2.5s-1.268-2.5-2.866-2.5h-4.134zm14 7v-16h11v2.519h-8.149v4.199h7.971v2.52h-7.972v4.199h8.15v2.519h-11v.045z" fill="#fff" sketch:type="MSShapeGroup"/><path d="M571 31.971c0 5.533-4.366 10.029-9.971 10.029-5.604 0-10.029-4.438-10.029-10.029 0-5.476 4.425-9.971 10.029-9.971 5.605 0 9.971 4.495 9.971 9.971zm-18-.387c0 4.744 3.724 8.415 8.529 8.415 4.746 0 8.471-3.728 8.471-8.528 0-4.744-3.724-8.472-8.471-8.472-4.805 0-8.529 3.728-8.529 8.585zm11.449-2.823c-.368-.171-1.469-.626-2.816-.626-2.755 0-4.102 1.648-4.102 3.807 0 2.102 1.408 3.864 4.163 3.864 1.164 0 2.266-.283 2.94-.681l.367 1.022c-1.041.626-2.388.852-3.612.852-3.429 0-5.388-2.159-5.388-4.943 0-3.126 2.633-5.057 5.633-5.057 1.53 0 2.816.398 3.245.738l-.429 1.023z" fill="#fff" sketch:type="MSShapeGroup"/><path d="M70 61.5c0 19.132-15.75 34.5-34.999 34.5-19.25 0-35.001-15.524-35.001-34.5s15.751-34.5 35.001-34.5 34.999 15.368 34.999 34.5" fill="#F35456" sketch:type="MSShapeGroup"/><path d="M15 72.252c0-4.709 2.574-14.597 6.435-26.526.482-1.726 1.286-1.726 3.699-1.726l-2.091 6.591h9.171c1.126 0 .805.785.482 2.825h-10.457c-2.574 9.104-3.86 15.225-3.86 17.893 0 2.825 1.448 4.709 4.505 4.709 2.091 0 3.86-.628 5.148-1.256l.16.156-.16 1.1c-.643 2.354-3.861 2.981-6.435 2.981-3.861 0-6.596-2.196-6.596-6.748" fill="#fff" sketch:type="MSShapeGroup"/><path d="M41.503 80c-5.798 0-9.503-3.658-9.503-8.59 0-4.614 3.383-7.637 7.892-8.75-3.06-1.432-4.993-4.773-4.993-7.796 0-6.364 5.316-9.864 11.597-9.864 5.154 0 9.504 2.546 9.504 7.955 0 4.773-3.544 8.273-8.054 9.705 3.222 1.114 5.316 3.659 5.316 6.841 0 6.682-5.476 10.499-11.759 10.499zm1.723-16c-4.678 0-8.226 2.854-8.226 7.134 0 3.171 2.419 5.866 6.452 5.866 4.677 0 8.548-2.854 8.548-7.451-.162-3.012-2.903-5.549-6.774-5.549zm3.176-16c-4.942 0-8.402 2.786-8.402 6.964 0 2.786 2.472 6.036 6.26 6.036 4.778 0 8.732-3.405 8.732-7.583.164-2.94-2.142-5.417-6.59-5.417z" fill="#fff" sketch:type="MSShapeGroup"/><path d="M118.818 76l-2.031-5.696h-14.573l-2.031 5.696h-8.182l12.961-34h8.839l13.2 34h-8.182zm-9.286-27l-5.532 15h11l-5.468-15zm20.468 27v-24h15.697c5.09 0 7.637 2.889 7.637 6.31 0 2.889-1.819 4.953-4.182 5.366 2.788.648 4.849 2.889 4.849 5.837 0 3.598-2.788 6.487-7.637 6.487h-16.363zm16-17.029c0-1.102-.898-1.971-2.276-1.971h-7.724v4h7.724c1.138-.058 2.276-.928 2.276-2.029zm1 9.529c0-1.25-.943-2.5-2.64-2.5h-8.36v5h8.36c1.698 0 2.64-1.053 2.64-2.5zm15.726 7.266v-18.218h-6.726v-5.548h20v5.548h-6.726v18.452l-6.549-.234zm14.274-11.887c0-6.893 5.032-12.879 13-12.879 8.207 0 13 5.986 13 12.879 0 6.892-5.033 13.121-13 13.121-8.028 0-13-5.986-13-13.121zm20 .118c0-3.855-2.352-6.997-6.624-6.997-4.024 0-6.376 3.38-6.376 6.997 0 3.854 2.353 6.996 6.376 6.996 4.52.178 6.624-3.202 6.624-6.996zm14.43 8.558v12.445h-6.43v-33.523h6.43v3.156c1.802-2.263 4.567-3.633 7.572-3.633 6.43 0 10.998 4.764 10.998 12.684 0 7.919-4.568 12.921-10.998 12.921-3.005-.179-5.708-1.548-7.572-4.05zm12.57-8.586c0-4.075-2.597-6.969-6.371-6.969-2.103 0-4.701 1.122-5.629 2.717v8.562c1.175 1.595 3.526 2.717 5.629 2.717 3.836.118 6.371-2.776 6.371-7.028v.001zm8-.364c0-7.457 5.494-12.605 13.1-12.605 5.071 0 8.03 2.013 9.9 4.26l-4.165 3.847c-1.147-1.598-2.958-2.723-5.071-2.723-3.924 0-6.64 2.9-6.64 6.983s2.776 6.982 6.64 6.982c2.294 0 3.925-.887 5.071-2.722l4.165 3.846c-1.629 2.249-4.829 4.497-9.9 4.497-7.606.474-13.1-4.97-13.1-12.367zm41.122 12.336l-6.667-9.176-2.97 3.118v6.059h-6.485v-23.941h6.485v10.764l9.455-10.764h8.06l-9.939 11 9.939 13h-7.878v-.059zm9.878.059v-24h6.409v14.565l10.003-14.565h6.589v24h-6.409v-15.037l-10.242 15.037h-6.349zm26-12.531c0-6.908 5.25-12.469 12.709-12.469 7.279 0 12.291 5.327 12.291 13.172v1.346h-18.198c.477 3.103 2.923 5.561 7.041 5.561 2.028 0 5.011-.878 6.564-2.458l2.924 4.039c-2.506 2.225-6.385 3.336-9.966 3.336-7.697.177-13.365-4.741-13.365-12.526zm12.882-7.469c-3.862 0-5.644 2.692-5.882 5h12c-.238-2.033-1.841-5-6.118-5zm34.548 16.555v12.445h-6.43v-33.523h6.43v3.156c1.803-2.263 4.567-3.633 7.572-3.633 6.431 0 10.998 4.764 10.998 12.684 0 7.919-4.567 12.921-10.998 12.921-2.944-.179-5.708-1.548-7.572-4.05zm12.57-8.586c0-4.075-2.598-6.969-6.371-6.969-2.103 0-4.7 1.122-5.629 2.717v8.562c1.176 1.595 3.526 2.717 5.629 2.717 3.773.118 6.371-2.776 6.371-7.028v.001zm7-.5c0-6.908 5.251-12.469 12.709-12.469 7.28 0 12.291 5.327 12.291 13.172v1.346h-18.198c.478 3.103 2.924 5.561 7.04 5.561 2.029 0 5.012-.878 6.563-2.458l2.924 4.039c-2.506 2.225-6.384 3.336-9.964 3.336-7.697.177-13.365-4.741-13.365-12.526zm12.881-7.469c-3.861 0-5.644 2.692-5.881 5h12c-.237-2.033-1.842-5-6.119-5zm51.119-4v24h-36v-24h6.529v18.634h8.115v-18.634h6.529v18.634h8.115v-18.634h6.712zm2 11.469c0-6.908 5.251-12.469 12.709-12.469 7.279 0 12.291 5.327 12.291 13.172v1.346h-18.198c.477 3.103 2.924 5.561 7.04 5.561 2.029 0 5.012-.878 6.563-2.458l2.924 4.039c-2.506 2.225-6.384 3.336-9.964 3.336-7.697.177-13.365-4.741-13.365-12.526zm12-7.469c-3.939 0-5.758 2.692-6 5h12c0-2.033-1.879-5-6-5zm16 20v-24h6.409v8.963h10.242v-8.963h6.349v24h-6.41v-9.67h-10.242v9.67h-6.348zm26 0v-24h6.409v14.565l10.003-14.565h6.589v24h-6.409v-15.037l-10.243 15.037h-6.348zm27 0l5.817-8.728c-2.816-.648-5.572-3.125-5.572-7.429 0-4.305 3-7.843 8.632-7.843h15.123v24h-6.551v-8.315h-5.143l-4.898 8.315h-7.408zm17-14v-5h-7.134c-1.755 0-2.866 1.08-2.866 2.387 0 1.534 1.111 2.613 2.866 2.613h7.134z" fill="#fff" sketch:type="MSShapeGroup"/></g></svg>