<svg xmlns="http://www.w3.org/2000/svg" viewBox="0 0 666.4 93.1" enable-background="new 0 0 666.4 93.1"><linearGradient id="a" gradientUnits="userSpaceOnUse" x1="13.577" y1="18.655" x2="13.577" y2="80.688"><stop offset="0" stop-color="#7CBF43"/><stop offset="1" stop-color="#5CC6F2"/></linearGradient><path fill="url(#a)" d="M0 63c0-7.2 3.9-22.7 9.7-41.2.8-2.8 1.8-2.8 5.6-2.8l-3.3 10.3h13.9c1.8 0 1.3 1.2.7 4.4h-15.8c-4 14.1-5.8 23.5-5.8 27.9 0 4.4 2.1 7.2 6.8 7.2 3.2 0 5.8-.9 7.7-1.9l.3.3-.3 1.8c-.9 3.6-5.8 4.6-9.6 4.6-5.9-.2-9.9-3.7-9.9-10.6z"/><linearGradient id="b" gradientUnits="userSpaceOnUse" x1="43.711" y1="18.655" x2="43.711" y2="80.688"><stop offset="0" stop-color="#7CBF43"/><stop offset="1" stop-color="#5CC6F2"/></linearGradient><path fill="url(#b)" d="M39.9 73.4c-8.8 0-14.3-5.7-14.3-13.2 0-7 5-11.6 11.9-13.4-4.7-2.3-7.5-7.3-7.5-12 0-9.6 7.9-15 17.6-15 7.7 0 14.3 3.8 14.3 12.3 0 7.4-5.4 12.7-12.1 15 4.8 1.8 7.9 5.5 7.9 10.5 0 9.8-8.4 15.8-17.8 15.8zm3.1-24.3c-7 0-12.4 4.4-12.4 10.9 0 4.8 3.7 9 9.6 9 6.9 0 12.8-4.4 12.8-11.4-.1-4.7-4.2-8.5-10-8.5zm4-24.8c-7.3 0-12.3 4.3-12.3 11 0 4.4 3.7 9.5 9.2 9.5 6.9 0 12.9-5.3 12.9-12-.1-4.8-3.5-8.5-9.8-8.5z"/><g fill="#fff"><path d="M138 67l-2.6-7.1h-18l-2.6 7.1h-10.2l16.2-42h11.2l16.2 42h-10.2zm-11.6-33l-6.5 18.1h13.1l-6.6-18.1zM151.3 67v-30.4h19.2c6.2 0 9.3 3.7 9.3 7.8 0 3.6-2.3 6.1-5.2 6.9 3.3.8 5.8 3.8 5.8 7.4 0 4.6-3.3 8.2-9.4 8.2h-19.7zm20.4-21.2c0-1.5-1.1-2.6-2.8-2.6h-9.6v5.1h9.6c1.8 0 2.8-1.1 2.8-2.5zm.6 11.9c0-1.5-1.1-2.8-3.1-2.8h-9.9v5.7h9.9c1.9-.1 3.1-1.2 3.1-2.9zM191.9 67v-23.4h-8.5v-7h25v7h-8.5v23.4h-8zM209.6 51.8c0-8.6 6-15.9 16-15.9 10.1 0 16.1 7.3 16.1 15.9 0 8.7-6 16-16.1 16-10 0-16-7.3-16-16zm23.8 0c0-4.7-2.8-8.8-7.8-8.8s-7.7 4.1-7.7 8.8c0 4.8 2.8 8.9 7.7 8.9 5 0 7.8-4.1 7.8-8.9zM252.5 63.1v15.5h-8v-42h8v3.8c2.3-3 5.7-4.6 9.4-4.6 7.8 0 13.5 5.8 13.5 15.9s-5.7 16-13.5 16c-3.6.1-6.9-1.4-9.4-4.6zm14.5-11.3c0-5.2-3.1-8.8-7.7-8.8-2.6 0-5.5 1.5-6.9 3.5v10.8c1.3 1.9 4.3 3.5 6.9 3.5 4.7-.1 7.7-3.7 7.7-9zM277.4 51.8c0-9.3 6.7-15.9 16.1-15.9 6.2 0 10 2.7 12 5.5l-5.2 4.9c-1.4-2.1-3.6-3.3-6.4-3.3-4.8 0-8.2 3.5-8.2 8.8s3.4 8.9 8.2 8.9c2.8 0 5-1.3 6.4-3.3l5.2 4.8c-2 2.8-5.8 5.5-12 5.5-9.4.1-16.1-6.5-16.1-15.9zM328 67l-8-11.7-3.6 3.9v7.8h-8v-30.4h8v13.5l11.5-13.5h9.8l-12 13.8 12.3 16.6h-10zM340.1 67v-30.4h8v18.4l12.5-18.4h8.1v30.4h-8v-19l-12.9 19h-7.7zM372.8 51.8c0-8.8 6.5-15.9 15.7-15.9 9.1 0 15.2 6.8 15.2 16.7v1.8h-22.6c.5 3.8 3.6 7 8.7 7 2.6 0 6.2-1.1 8.1-3l3.5 5.2c-3 2.8-7.8 4.2-12.5 4.2-9.2 0-16.1-6.2-16.1-16zm15.7-9.6c-5 0-7.1 3.7-7.5 6.7h15c-.2-2.8-2.2-6.7-7.5-6.7zM431.1 63.1v15.5h-8v-42h8v3.8c2.3-3 5.7-4.6 9.4-4.6 7.8 0 13.5 5.8 13.5 15.9s-5.7 16-13.5 16c-3.6.1-7-1.4-9.4-4.6zm14.5-11.3c0-5.2-3.1-8.8-7.7-8.8-2.6 0-5.5 1.5-6.9 3.5v10.8c1.3 1.9 4.3 3.5 6.9 3.5 4.6-.1 7.7-3.7 7.7-9zM455.9 51.8c0-8.8 6.5-15.9 15.7-15.9 9.1 0 15.2 6.8 15.2 16.7v1.8h-22.6c.5 3.8 3.6 7 8.7 7 2.6 0 6.2-1.1 8.1-3l3.5 5.2c-3 2.8-7.8 4.2-12.5 4.2-9.1 0-16.1-6.2-16.1-16zm15.7-9.6c-5 0-7.1 3.7-7.5 6.7h15c-.2-2.8-2.2-6.7-7.5-6.7zM533.4 36.6v30.4h-43.8v-30.4h8v23.4h9.9v-23.4h8v23.4h9.9v-23.4h8zM536.2 51.8c0-8.8 6.5-15.9 15.7-15.9 9.1 0 15.2 6.8 15.2 16.7v1.8h-22.6c.5 3.8 3.6 7 8.7 7 2.6 0 6.2-1.1 8.1-3l3.5 5.2c-3 2.8-7.8 4.2-12.5 4.2-9.1 0-16.1-6.2-16.1-16zm15.7-9.6c-5 0-7.1 3.7-7.5 6.7h15c-.2-2.8-2.2-6.7-7.5-6.7zM571 67v-30.4h8v11.3h12.6v-11.3h8v30.4h-8v-12.1h-12.6v12.1h-8zM603.5 67v-30.4h8v18.4l12.5-18.4h8.1v30.4h-8v-19l-12.9 19h-7.7zM637.1 67l7-11c-3.5-.9-6.7-4-6.7-9.4 0-5.3 3.8-9.9 10.5-9.9h18.4v30.3h-8v-10.4h-6.2l-6 10.4h-9zm21.3-17.1v-6.5h-9.2c-2.2 0-3.6 1.3-3.6 3.2 0 2 1.4 3.3 3.6 3.3h9.2z"/></g><path opacity=".3" fill="#fff" d="M101.299-.042l3.724 1.459-35.886 91.62-3.724-1.459z"/></svg>